<svg width="82" height="32" viewBox="0 0 82 32" fill="none" xmlns="http://www.w3.org/2000/svg">
<path d="M71.2773 17.4109C70.1173 16.2452 68.241 16.2452 67.0809 17.4109C65.9209 18.5766 65.9209 20.4622 67.0809 21.6279L76.5322 31.1257C77.6922 32.2915 79.5685 32.2915 80.7285 31.1257C81.8886 29.96 81.8886 28.0745 80.7285 26.9087L71.2773 17.4109Z" fill="#191919"/>
<path d="M38.3749 17.4109C37.2149 16.2452 35.3386 16.2452 34.1786 17.4109C33.0186 18.5766 33.0186 20.4622 34.1786 21.6279L43.6299 31.1257C44.7899 32.2915 46.6662 32.2915 47.8262 31.1257C48.9862 29.96 48.9862 28.0745 47.8262 26.9087L38.3749 17.4109Z" fill="#191919"/>
<path d="M60.0854 17.4109L50.6278 26.9087C49.4678 28.0745 49.4678 29.96 50.6278 31.1257C51.7878 32.2915 53.6641 32.2915 54.8242 31.1257L64.2754 21.6279C65.4354 20.4622 65.4354 18.5766 64.2754 17.4109C63.1217 16.2452 61.2454 16.2452 60.0854 17.4109Z" fill="#191919"/>
<path d="M27.1787 17.4109L17.7274 26.9087C16.5674 28.0745 16.5674 29.96 17.7274 31.1257C18.8874 32.2915 20.7638 32.2915 21.9238 31.1257L31.375 21.6279C32.535 20.4622 32.535 18.5766 31.375 17.4109C30.215 16.2452 28.3387 16.2452 27.1787 17.4109Z" fill="#191919"/>
<path d="M54.8242 0.874296C53.6641 -0.291432 51.7878 -0.291432 50.6278 0.874296C49.4678 2.04002 49.4678 3.92557 50.6278 5.0913L60.0791 14.5891C61.2391 15.7548 63.1154 15.7548 64.2754 14.5891C65.4354 13.4234 65.4354 11.5378 64.2754 10.3721L54.8242 0.874296Z" fill="#191919"/>
<path d="M21.9179 0.874296C20.7579 -0.291432 18.8816 -0.291432 17.7216 0.874296C16.5616 2.04002 16.5616 3.92557 17.7216 5.0913L27.1792 14.5891C28.3392 15.7548 30.2155 15.7548 31.3755 14.5891C32.5355 13.4234 32.5355 11.5378 31.3755 10.3721L21.9179 0.874296Z" fill="#191919"/>
<path d="M43.6299 0.874296L34.1786 10.3721C33.0186 11.5378 33.0186 13.4234 34.1786 14.5891C35.3386 15.7548 37.2149 15.7548 38.3749 14.5891L47.8262 5.0913C48.9862 3.92557 48.9862 2.04002 47.8262 0.874296C46.6725 -0.291432 44.7899 -0.291432 43.6299 0.874296Z" fill="#191919"/>
<path d="M10.7236 0.874296L1.27235 10.3721C0.11234 11.5378 0.11234 13.4234 1.27235 14.5891C2.43237 15.7548 4.30867 15.7548 5.46869 14.5891L14.9199 5.0913C16.08 3.92557 16.08 2.04002 14.9199 0.874296C13.7663 -0.291432 11.8836 -0.291432 10.7236 0.874296Z" fill="#191919"/>
</svg>
