<svg width="104" height="46" viewBox="0 0 104 46" fill="none" xmlns="http://www.w3.org/2000/svg">
<path d="M93.8957 3.29302L87.506 9.21002C86.7986 9.86512 86.7984 10.9274 87.5056 11.5828C88.2128 12.2381 89.3596 12.2383 90.067 11.5832L96.4567 5.66617C97.1641 5.01108 97.1643 3.94876 96.4572 3.29344C95.75 2.63811 94.6032 2.63792 93.8957 3.29302Z" fill="#072E51"/>
<path d="M79.318 3.28274C78.6105 2.62764 77.4637 2.62783 76.7566 3.28315C76.0494 3.93848 76.0496 5.00079 76.757 5.65589L83.1467 11.5729C83.8542 12.228 85.0009 12.2278 85.7081 11.5725C86.4153 10.9171 86.4151 9.85483 85.7077 9.19973L79.318 3.28274Z" fill="#072E51"/>
<path d="M98.1879 3.35773C99.1888 3.35773 100 2.60608 100 1.67887C100 0.751654 99.1888 0 98.1879 0C97.1869 0 96.3755 0.751654 96.3755 1.67887C96.3755 2.60608 97.1869 3.35773 98.1879 3.35773Z" fill="#072E51"/>
<path d="M0 13.1226H4.10654L7.05837 20.3506L10.0102 13.1226H13.989L8.75233 25.106H5.23545L0 13.1226Z" fill="#072E51"/>
<path d="M16.7323 24.512C15.7136 23.9886 14.927 23.2556 14.3713 22.313C13.8156 21.3704 13.5366 20.2964 13.5366 19.091C13.5366 17.8856 13.8191 16.8398 14.3842 15.9048C14.9492 14.9698 15.7312 14.2401 16.7323 13.7178C17.7334 13.1943 18.8588 12.9326 20.1073 12.9326C21.527 12.9326 22.7637 13.2421 23.8164 13.86C24.8692 14.4779 25.63 15.326 26.1012 16.4044C26.5713 17.4827 26.705 18.6555 26.4986 19.9228H15.744V17.4262H22.5715C22.5539 17.0614 22.4437 16.7367 22.2374 16.4511C22.0322 16.1655 21.745 15.9483 21.3781 15.7973C21.01 15.6464 20.5868 15.5715 20.1073 15.5715C19.4743 15.5715 18.9397 15.6942 18.5036 15.9396C18.0675 16.185 17.7416 16.5618 17.5283 17.069C17.3137 17.5761 17.2071 18.2266 17.2071 19.0182C17.2071 19.7632 17.3348 20.3898 17.5916 20.8969C17.8483 21.404 18.2117 21.7809 18.683 22.0263C19.1531 22.2717 19.6876 22.3944 20.2867 22.3944C20.8857 22.3944 21.4156 22.2793 21.8271 22.0502C22.2374 21.821 22.5117 21.5072 22.6488 21.1108H26.4224C26.2513 21.9514 25.8961 22.6887 25.3568 23.3218C24.8176 23.956 24.1201 24.4436 23.2655 24.7846C22.4097 25.1256 21.4261 25.2961 20.3136 25.2961C18.9444 25.2961 17.751 25.0343 16.7335 24.5109L16.7323 24.512Z" fill="#072E51"/>
<path d="M27.9614 13.1227H31.7597V14.4779C32.136 14.0186 32.6541 13.6461 33.3129 13.3605C33.9718 13.0749 34.6775 12.9326 35.4301 12.9326C35.9951 12.9326 36.4652 13.0043 36.8415 13.1465V16.475C36.5508 16.3794 36.2636 16.3088 35.9822 16.261C35.6997 16.2132 35.4043 16.1894 35.0972 16.1894C34.4817 16.1894 33.9249 16.3436 33.429 16.6531C32.9319 16.9625 32.531 17.4534 32.2227 18.1267C31.9144 18.801 31.7608 19.6524 31.7608 20.683V25.1049H27.9626V13.1216L27.9614 13.1227Z" fill="#072E51"/>
<path d="M40.0524 12.9326C41.1016 12.9326 41.9515 13.7199 41.9515 14.6918V23.5368C41.9515 24.5088 41.1016 25.2961 40.0524 25.2961C39.0032 25.2961 38.1533 24.5088 38.1533 23.5368V14.6918C38.1533 13.7199 39.0032 12.9326 40.0524 12.9326Z" fill="#072E51"/>
<path d="M46.3078 24.5359C45.3583 24.0288 44.6174 23.311 44.0875 22.3847C43.5564 21.4573 43.2915 20.3681 43.2915 19.1149C43.2915 17.8617 43.5564 16.7725 44.0875 15.8451C44.6174 14.9177 45.3583 14.201 46.3078 13.6939C47.2574 13.1867 48.357 12.9326 49.6055 12.9326C50.3405 12.9326 51.0427 13.0716 51.7097 13.3485C52.3768 13.6265 52.8902 13.9947 53.2501 14.454V13.1227H57.0741V25.106H53.2501V23.7747C52.8902 24.2188 52.3814 24.5826 51.7226 24.8682C51.0638 25.1538 50.3581 25.2961 49.6055 25.2961C48.3558 25.2961 47.2574 25.043 46.3078 24.5348V24.5359ZM51.8 21.9199C52.2701 21.6506 52.63 21.2705 52.8785 20.7785C53.1259 20.2877 53.2501 19.7328 53.2501 19.1138C53.2501 18.4948 53.1259 17.9171 52.8785 17.4252C52.63 16.9343 52.2713 16.5575 51.8 16.2958C51.3287 16.0341 50.7942 15.9038 50.1963 15.9038C49.5984 15.9038 49.0674 16.0341 48.6055 16.2958C48.1436 16.5575 47.7802 16.9343 47.5141 17.4252C47.2492 17.9171 47.1167 18.4796 47.1167 19.1138C47.1167 19.748 47.2492 20.3062 47.5141 20.7905C47.779 21.2737 48.1424 21.6506 48.6055 21.9199C49.0674 22.1892 49.5973 22.3238 50.1963 22.3238C50.7953 22.3238 51.3299 22.1892 51.8 21.9199Z" fill="#072E51"/>
<path d="M76.9621 13.4799C77.6889 13.8448 78.2493 14.3639 78.6431 15.0371C79.037 15.7115 79.234 16.5075 79.234 17.4262V25.106H75.4358V18.1875C75.4358 17.7281 75.3549 17.3361 75.1919 17.0103C75.029 16.6856 74.8027 16.4358 74.512 16.261C74.2213 16.0873 73.8708 15.9993 73.4593 15.9993C72.9282 15.9993 72.4792 16.1339 72.1123 16.4033C71.7442 16.6726 71.4617 17.0494 71.2647 17.5326C71.0678 18.0159 70.9693 18.5437 70.9693 19.1138V25.1049H67.1711V18.1864C67.1711 17.727 67.0902 17.335 66.9273 17.0092C66.7643 16.6845 66.5428 16.4348 66.2602 16.2599C65.9777 16.0862 65.6225 15.9982 65.1946 15.9982C64.6636 15.9982 64.2099 16.1329 63.8348 16.4022C63.4585 16.6715 63.1713 17.0483 62.9755 17.5316C62.7785 18.0148 62.6801 18.5426 62.6801 19.1127V25.1038H58.8818V13.1205H62.6801V14.5713C63.0564 14.0804 63.5991 13.6841 64.3095 13.3822C65.02 13.0814 65.7937 12.9304 66.6319 12.9304C67.1969 12.9304 67.7268 13.0021 68.2227 13.1444C68.7185 13.2866 69.1464 13.4973 69.5063 13.7742C69.8662 14.0522 70.1218 14.3563 70.2765 14.6896C70.79 14.1662 71.4277 13.7427 72.1885 13.418C72.9493 13.0933 73.716 12.9304 74.4862 12.9304C75.41 12.9304 76.2353 13.1129 76.9633 13.4777L76.9621 13.4799Z" fill="#072E51"/>
<path d="M40.0524 12.0899C41.1013 12.0899 41.9515 11.3022 41.9515 10.3306C41.9515 9.35904 41.1013 8.57141 40.0524 8.57141C39.0036 8.57141 38.1533 9.35904 38.1533 10.3306C38.1533 11.3022 39.0036 12.0899 40.0524 12.0899Z" fill="#072E51"/>
<path d="M0.01 39.296L2.75 32.296H4.08L6.8 39.296H5.54L4.91 37.646H1.87L1.24 39.296H0.01ZM2.26 36.646H4.53L3.4 33.746L2.26 36.646ZM7.51641 39.296V32.296H9.78641C11.7064 32.296 13.3164 33.516 13.3164 35.796C13.3164 38.066 11.7064 39.296 9.78641 39.296H7.51641ZM8.69641 38.286H9.65641C11.0264 38.286 12.1364 37.456 12.1364 35.796C12.1364 34.136 11.0264 33.306 9.65641 33.306H8.69641V38.286ZM14.3816 39.296V32.296H16.0416L17.6316 36.126C18.0716 37.186 18.2316 37.876 18.2316 37.876C18.2316 37.876 18.3916 37.186 18.8116 36.176L20.4216 32.296H22.0416V39.296H20.8616V35.586C20.8616 34.446 20.9216 33.736 20.9216 33.736C20.9216 33.736 20.7016 34.416 20.2816 35.426L18.6816 39.296H17.7416L16.1516 35.476C15.7116 34.416 15.5016 33.736 15.5016 33.736C15.5016 33.736 15.5616 34.446 15.5616 35.546V39.296H14.3816ZM23.4441 39.296V32.296H24.6241V39.296H23.4441ZM26.0223 39.296V32.296H27.4923L29.7823 36.256C30.3623 37.256 30.6423 37.906 30.6423 37.906C30.6423 37.906 30.5623 37.196 30.5623 36.096V32.296H31.7423V39.296H30.2723L27.9823 35.326C27.4023 34.336 27.1223 33.686 27.1223 33.686C27.1223 33.686 27.2023 34.396 27.2023 35.496V39.296H26.0223ZM35.2898 39.296V32.296H38.0898C39.4598 32.296 40.3598 33.126 40.3598 34.376C40.3598 35.646 39.4598 36.466 38.0898 36.466H36.4598V39.296H35.2898ZM36.4598 35.466H37.9698C38.7098 35.466 39.1898 35.036 39.1898 34.376C39.1898 33.726 38.7098 33.306 37.9698 33.306H36.4598V35.466ZM44.4366 39.376C42.4066 39.376 40.9166 37.866 40.9166 35.796C40.9166 33.726 42.4066 32.216 44.4366 32.216C46.4466 32.216 47.9466 33.726 47.9466 35.796C47.9466 37.866 46.4466 39.376 44.4366 39.376ZM42.0966 35.796C42.0966 37.286 43.0766 38.366 44.4366 38.366C45.7966 38.366 46.7666 37.276 46.7666 35.796C46.7666 34.316 45.7966 33.226 44.4366 33.226C43.0766 33.226 42.0966 34.306 42.0966 35.796ZM49.0203 39.296V32.296H51.7003C52.9903 32.296 53.8703 33.106 53.8703 34.306C53.8703 35.126 53.4003 35.826 52.6303 36.136L54.5603 39.296H53.1903L51.4403 36.316H50.2003V39.296H49.0203ZM50.2003 35.306H51.5003C52.2303 35.306 52.7003 34.896 52.7003 34.306C52.7003 33.706 52.2303 33.306 51.5003 33.306H50.2003V35.306ZM56.6262 39.296V33.306H54.4762V32.296H59.9562V33.306H57.8062V39.296H56.6262ZM59.2971 39.296L62.0371 32.296H63.3671L66.0871 39.296H64.8271L64.1971 37.646H61.1571L60.5271 39.296H59.2971ZM61.5471 36.646H63.8171L62.6871 33.746L61.5471 36.646ZM66.8035 39.296V32.296H67.9835V38.286H71.3735V39.296H66.8035Z" fill="#072E51"/>
</svg>
