<svg :width="width" :height="height" viewBox="0 0 226 268" fill="none" xmlns="http://www.w3.org/2000/svg">
<path d="M-14.5621 156.154C-24.9658 145.699 -41.7936 145.699 -52.1973 156.154C-62.6009 166.609 -62.6009 183.52 -52.1973 193.975L32.567 279.159C42.9706 289.614 59.7984 289.614 70.2021 279.159C80.6057 268.703 80.6057 251.792 70.2021 241.337L-14.5621 156.154Z" fill="#072E51" fill-opacity="0.06"/>
<path d="M180.153 156.154L95.3316 241.337C84.9279 251.792 84.9279 268.703 95.3316 279.159C105.735 289.614 122.563 289.614 132.967 279.159L217.731 193.975C228.135 183.52 228.135 166.609 217.731 156.154C207.384 145.699 190.556 145.699 180.153 156.154Z" fill="#072E51" fill-opacity="0.06"/>
<path d="M132.967 7.84134C122.563 -2.61378 105.735 -2.61378 95.3316 7.84134C84.9279 18.2965 84.9279 35.2075 95.3316 45.6626L180.096 130.846C190.499 141.301 207.327 141.301 217.731 130.846C228.135 120.391 228.135 103.48 217.731 93.0249L132.967 7.84134Z" fill="#072E51" fill-opacity="0.06"/>
<path d="M32.567 7.84134L-52.1973 93.0249C-62.6009 103.48 -62.6009 120.391 -52.1973 130.846C-41.7936 141.301 -24.9658 141.301 -14.5621 130.846L70.2021 45.6626C80.6057 35.2075 80.6057 18.2965 70.2021 7.84134C59.8553 -2.61378 42.9706 -2.61378 32.567 7.84134Z" fill="#072E51" fill-opacity="0.06"/>
</svg>
