<svg width="188" height="55" viewBox="0 0 188 55" fill="none" xmlns="http://www.w3.org/2000/svg">
<g clip-path="url(#clip0_4288_1313)">
<path d="M175.865 7.39532L163.949 20.0419C162.629 21.4421 162.629 23.7126 163.948 25.1133C165.267 26.5139 167.405 26.5143 168.725 25.1141L180.642 12.4675C181.961 11.0674 181.961 8.79686 180.642 7.3962C179.324 5.99554 177.185 5.99515 175.865 7.39532Z" fill="#072E51"/>
<path d="M148.678 7.37353C147.358 5.97336 145.22 5.97376 143.901 7.37442C142.582 8.77507 142.582 11.0456 143.901 12.4457L155.818 25.0923C157.138 26.4925 159.276 26.4921 160.595 25.0915C161.914 23.6908 161.914 21.4203 160.594 20.0201L148.678 7.37353Z" fill="#072E51"/>
<path d="M183.87 7.53365C185.737 7.53365 187.25 5.92712 187.25 3.94536C187.25 1.96359 185.737 0.357056 183.87 0.357056C182.003 0.357056 180.49 1.96359 180.49 3.94536C180.49 5.92712 182.003 7.53365 183.87 7.53365Z" fill="#072E51"/>
<path d="M0.75 28.2905H8.40869L13.9139 43.7392L19.419 28.2905H26.8394L17.0731 53.903H10.5141L0.75 28.2905Z" fill="#072E51"/>
<path d="M31.9554 52.6333C30.0555 51.5146 28.5885 49.9479 27.5521 47.9333C26.5158 45.9186 25.9955 43.6231 25.9955 41.0468C25.9955 38.4705 26.5224 36.2353 27.5762 34.2369C28.63 32.2385 30.0883 30.6788 31.9554 29.5624C33.8225 28.4436 35.9214 27.8843 38.2498 27.8843C40.8975 27.8843 43.204 28.5458 45.1674 29.8664C47.1307 31.1871 48.5496 32.9998 49.4285 35.3046C50.3052 37.6094 50.5545 40.1161 50.1697 42.8247H30.1123V37.4887H42.8455C42.8127 36.7088 42.6072 36.0148 42.2224 35.4044C41.8398 34.794 41.3041 34.3298 40.6198 34.0071C39.9333 33.6845 39.144 33.5244 38.2498 33.5244C37.0692 33.5244 36.0723 33.7866 35.2589 34.3112C34.4456 34.8357 33.8378 35.6411 33.4399 36.725C33.0398 37.809 32.8409 39.1993 32.8409 40.8913C32.8409 42.4835 33.0792 43.8227 33.558 44.9067C34.0368 45.9906 34.7145 46.796 35.5934 47.3205C36.4702 47.8451 37.4671 48.1073 38.5843 48.1073C39.7015 48.1073 40.6898 47.8613 41.4572 47.3716C42.2224 46.8818 42.734 46.2111 42.9898 45.3639H50.0276C49.7084 47.1604 49.0459 48.7363 48.0402 50.0895C47.0345 51.445 45.7336 52.4871 44.1398 53.2159C42.5438 53.9447 40.7094 54.3091 38.6346 54.3091C36.081 54.3091 33.8553 53.7497 31.9576 52.631L31.9554 52.6333Z" fill="#072E51"/>
<path d="M52.8982 28.2905H59.9819V31.1871C60.6837 30.2053 61.6501 29.4092 62.8788 28.7988C64.1075 28.1883 65.4236 27.8843 66.8273 27.8843C67.8811 27.8843 68.7578 28.0375 69.4596 28.3415V35.4555C68.9174 35.2512 68.3817 35.1003 67.857 34.9982C67.3301 34.8961 66.7792 34.845 66.2063 34.845C65.0585 34.845 64.02 35.1746 63.0952 35.8361C62.1682 36.4976 61.4205 37.5467 60.8455 38.9857C60.2705 40.4271 59.9841 42.2468 59.9841 44.4494V53.9006H52.9004V28.2881L52.8982 28.2905Z" fill="#072E51"/>
<path d="M75.4479 27.8843C77.4047 27.8843 78.9898 29.567 78.9898 31.6443V50.5491C78.9898 52.6264 77.4047 54.3091 75.4479 54.3091C73.4912 54.3091 71.9061 52.6264 71.9061 50.5491V31.6443C71.9061 29.567 73.4912 27.8843 75.4479 27.8843Z" fill="#072E51"/>
<path d="M87.1142 52.6844C85.3432 51.6005 83.9615 50.0663 82.9733 48.0864C81.9829 46.1043 81.4888 43.7763 81.4888 41.0979C81.4888 38.4194 81.9829 36.0914 82.9733 34.1093C83.9615 32.1271 85.3432 30.5952 87.1142 29.5113C88.8851 28.4274 90.9359 27.8843 93.2643 27.8843C94.6351 27.8843 95.9447 28.1814 97.1887 28.7732C98.4328 29.3674 99.3904 30.1542 100.062 31.136V28.2905H107.193V53.9029H100.062V51.0574C99.3904 52.0067 98.4415 52.7842 97.2128 53.3946C95.9841 54.0051 94.6679 54.3091 93.2643 54.3091C90.9337 54.3091 88.8851 53.7683 87.1142 52.6821V52.6844ZM97.3571 47.0931C98.2338 46.5174 98.905 45.7051 99.3685 44.6537C99.8298 43.6046 100.062 42.4185 100.062 41.0955C100.062 39.7726 99.8298 38.5378 99.3685 37.4863C98.905 36.4372 98.236 35.6318 97.3571 35.0725C96.4782 34.5131 95.4812 34.2346 94.3662 34.2346C93.2512 34.2346 92.2608 34.5131 91.3994 35.0725C90.5379 35.6318 89.8602 36.4372 89.3639 37.4863C88.8698 38.5378 88.6227 39.7401 88.6227 41.0955C88.6227 42.451 88.8698 43.644 89.3639 44.6792C89.858 45.712 90.5358 46.5174 91.3994 47.0931C92.2608 47.6687 93.249 47.9565 94.3662 47.9565C95.4834 47.9565 96.4804 47.6687 97.3571 47.0931Z" fill="#072E51"/>
<path d="M144.284 29.0541C145.64 29.8339 146.685 30.9434 147.42 32.3824C148.154 33.8238 148.521 35.5251 148.521 37.4887V53.9029H141.438V39.1157C141.438 38.1339 141.287 37.296 140.983 36.5997C140.679 35.9057 140.257 35.3719 139.715 34.9982C139.173 34.6268 138.519 34.4388 137.752 34.4388C136.761 34.4388 135.924 34.7267 135.24 35.3023C134.553 35.8779 134.026 36.6833 133.659 37.7161C133.292 38.749 133.108 39.877 133.108 41.0955V53.9006H126.024V39.1134C126.024 38.1316 125.873 37.2937 125.569 36.5974C125.266 35.9034 124.852 35.3696 124.325 34.9959C123.798 34.6245 123.136 34.4365 122.338 34.4365C121.348 34.4365 120.502 34.7243 119.802 35.2999C119.1 35.8756 118.564 36.681 118.199 37.7138C117.832 38.7467 117.648 39.8747 117.648 41.0932V53.8983H110.565V28.2858H117.648V31.3867C118.35 30.3376 119.362 29.4904 120.687 28.8452C122.012 28.2023 123.455 27.8796 125.018 27.8796C126.072 27.8796 127.061 28.0328 127.985 28.3369C128.91 28.6409 129.708 29.0912 130.379 29.6831C131.051 30.2773 131.527 30.9271 131.816 31.6397C132.773 30.521 133.963 29.6158 135.382 28.9218C136.801 28.2278 138.23 27.8796 139.667 27.8796C141.39 27.8796 142.929 28.2696 144.287 29.0494L144.284 29.0541Z" fill="#072E51"/>
<path d="M75.4479 26.0832C77.4041 26.0832 78.9898 24.3998 78.9898 22.3232C78.9898 20.2465 77.4041 18.5631 75.4479 18.5631C73.4918 18.5631 71.9061 20.2465 71.9061 22.3232C71.9061 24.3998 73.4918 26.0832 75.4479 26.0832Z" fill="#072E51"/>
</g>
<defs>
<clipPath id="clip0_4288_1313">
<rect width="186.5" height="53.9521" fill="white" transform="translate(0.75 0.357056)"/>
</clipPath>
</defs>
</svg>
