<svg width="21" height="22"  viewBox="0 0 20 21" fill="none" xmlns="http://www.w3.org/2000/svg">
    <path d="M7.5 14.675V15.5145C7.5 16.1776 7.23661 16.8134 6.76777 17.2823L6.25 17.8H13.75L13.2322 17.2823C12.7634 16.8134 12.5 16.1776 12.5 15.5145V14.675M17.5 4.67505V12.8C17.5 13.8356 16.6605 14.675 15.625 14.675H4.375C3.33947 14.675 2.5 13.8356 2.5 12.8V4.67505M17.5 4.67505C17.5 3.63951 16.6605 2.80005 15.625 2.80005H4.375C3.33947 2.80005 2.5 3.63951 2.5 4.67505M17.5 4.67505V10.3C17.5 11.3356 16.6605 12.175 15.625 12.175H4.375C3.33947 12.175 2.5 11.3356 2.5 10.3V4.67505" stroke="#072E51" stroke-width="1.5" stroke-linecap="round" stroke-linejoin="round"/>
    </svg>
    