<svg width="32" height="32" viewBox="0 0 32 32" fill="none" xmlns="http://www.w3.org/2000/svg">
<path fill-rule="evenodd" clip-rule="evenodd" d="M24 16C24 16.6628 23.4627 17.2 22.8 17.2H12.1793L15.6317 20.335C16.1095 20.7944 16.1244 21.554 15.665 22.0317C15.2056 22.5095 14.446 22.5244 13.9683 22.065L8.36827 16.865C8.13298 16.6388 8 16.3264 8 16C8 15.6736 8.13298 15.3613 8.36827 15.135L13.9683 9.93501C14.446 9.47566 15.2056 9.49055 15.665 9.96828C16.1244 10.446 16.1095 11.2057 15.6317 11.665L12.1793 14.8L22.8 14.8C23.4627 14.8 24 15.3373 24 16Z" fill="#191919"/>
</svg>
