<svg width="18" height="18" viewBox="0 0 18 18" fill="none" xmlns="http://www.w3.org/2000/svg">
<path fill-rule="evenodd" clip-rule="evenodd" d="M15.3127 11.4243C14.5265 14.3584 11.5107 16.0996 8.57661 15.3134C7.60759 15.0537 6.77054 14.5521 6.11082 13.8912L5.79929 13.5796L8.23252 13.5792C8.64673 13.5791 8.98246 13.2433 8.98238 12.829C8.98231 12.4148 8.64646 12.0791 8.23225 12.0792L3.98881 12.0799C3.7899 12.08 3.59914 12.159 3.45852 12.2997C3.31789 12.4404 3.23891 12.6312 3.23895 12.8301L3.23984 17.0719C3.23993 17.4861 3.57579 17.8219 3.99 17.8218C4.40421 17.8217 4.73993 17.4858 4.73984 17.0716L4.73933 14.641L5.04918 14.9508C5.89022 15.7934 6.9579 16.4326 8.18838 16.7623C11.9226 17.7629 15.761 15.5468 16.7616 11.8125C16.8688 11.4124 16.6314 11.0012 16.2313 10.894C15.8312 10.7868 15.4199 11.0242 15.3127 11.4243ZM16.5416 7.70192C16.6823 7.56124 16.7613 7.37045 16.7613 7.17151L16.7606 2.92956C16.7605 2.51535 16.4246 2.17962 16.0104 2.17969C15.5962 2.17976 15.2605 2.5156 15.2606 2.92981L15.261 5.36068L14.9511 5.05086C14.1101 4.20845 13.0422 3.569 11.8118 3.23932C8.07758 2.23873 4.23923 4.45481 3.23863 8.18907C3.13143 8.58917 3.36886 9.00042 3.76896 9.10763C4.16906 9.21483 4.58031 8.9774 4.68752 8.5773C5.4737 5.64323 8.48955 3.90203 11.4236 4.68821C12.3927 4.94787 13.2297 5.44954 13.8895 6.11052L14.2006 6.42164L11.7686 6.42164C11.3544 6.42164 11.0186 6.75742 11.0186 7.17164C11.0186 7.58585 11.3544 7.92164 11.7686 7.92164H16.0113C16.2102 7.92164 16.401 7.8426 16.5416 7.70192Z" fill="#072E51"/>
</svg>
