<svg width="13" height="12" viewBox="0 0 13 12" fill="none" xmlns="http://www.w3.org/2000/svg">
<path fill-rule="evenodd" clip-rule="evenodd" d="M0.199219 5.9999C0.199218 5.62711 0.501426 5.3249 0.874218 5.3249L10.4483 5.3249L6.70637 1.76146C6.43765 1.50308 6.42927 1.07577 6.68766 0.807053C6.94604 0.538333 7.37335 0.529954 7.64207 0.788339L12.5921 5.51334C12.7244 5.6406 12.7992 5.81629 12.7992 5.9999C12.7992 6.18351 12.7244 6.3592 12.5921 6.48646L7.64207 11.2115C7.37335 11.4698 6.94604 11.4615 6.68766 11.1927C6.42927 10.924 6.43765 10.4967 6.70637 10.2383L10.4483 6.6749L0.874219 6.6749C0.501426 6.6749 0.199219 6.37269 0.199219 5.9999Z" fill="#0F172A"/>
</svg>
