<svg width="19" height="18" viewBox="0 0 19 18" fill="none" xmlns="http://www.w3.org/2000/svg">
<path fill-rule="evenodd" clip-rule="evenodd" d="M4.32578 4.9498C3.95299 4.9498 3.65078 5.25201 3.65078 5.6248V13.2748C3.65078 13.6476 3.95299 13.9498 4.32578 13.9498H11.9758C12.3486 13.9498 12.6508 13.6476 12.6508 13.2748V9.6748C12.6508 9.30201 12.953 8.9998 13.3258 8.9998C13.6986 8.9998 14.0008 9.30201 14.0008 9.6748V13.2748C14.0008 14.3932 13.0942 15.2998 11.9758 15.2998H4.32578C3.20741 15.2998 2.30078 14.3932 2.30078 13.2748V5.6248C2.30078 4.50643 3.2074 3.5998 4.32578 3.5998H8.82578C9.19857 3.5998 9.50078 3.90201 9.50078 4.2748C9.50078 4.6476 9.19857 4.9498 8.82578 4.9498H4.32578Z" fill="#0F172A"/>
<path fill-rule="evenodd" clip-rule="evenodd" d="M6.07524 11.4777C6.32536 11.7541 6.75221 11.7755 7.02865 11.5253L15.3508 3.99579V6.5248C15.3508 6.8976 15.653 7.1998 16.0258 7.1998C16.3986 7.1998 16.7008 6.8976 16.7008 6.5248V2.4748C16.7008 2.10201 16.3986 1.7998 16.0258 1.7998H11.9758C11.603 1.7998 11.3008 2.10201 11.3008 2.4748C11.3008 2.8476 11.603 3.1498 11.9758 3.1498H14.2736L6.12292 10.5243C5.84648 10.7744 5.82513 11.2012 6.07524 11.4777Z" fill="#0F172A"/>
</svg>