<svg viewBox="0 0 24 24" fill="none" xmlns="http://www.w3.org/2000/svg">
<path d="M3.45444 8.54517C4.86033 9.95106 7.13972 9.95106 8.54561 8.54517C8.71837 8.37241 8.8699 8.18646 9.0002 7.99057C9.64518 8.96044 10.748 9.59963 12 9.59963C13.2523 9.59963 14.3552 8.96027 15.0001 7.99018C15.1305 8.18624 15.2821 8.37233 15.455 8.54522C16.8609 9.9511 19.1403 9.9511 20.5462 8.54522C21.952 7.13933 21.952 4.85993 20.5462 3.45405L20.195 3.10285C19.7449 2.65276 19.1344 2.3999 18.4979 2.3999H5.50265C4.86613 2.3999 4.25569 2.65276 3.8056 3.10285L3.45444 3.454C2.04855 4.85989 2.04855 7.13929 3.45444 8.54517Z" fill="#6C737F"/>
<path d="M3.60002 10.8386C5.31362 11.6887 7.38474 11.5726 9.0007 10.4904C9.85801 11.064 10.8897 11.3996 12 11.3996C13.1105 11.3996 14.1422 11.0639 14.9996 10.4902C16.6154 11.5726 18.6864 11.6888 20.4 10.8389V19.7999H20.7C21.1971 19.7999 21.6 20.2028 21.6 20.6999C21.6 21.197 21.1971 21.5999 20.7 21.5999H15.3C14.803 21.5999 14.4 21.197 14.4 20.6999V16.4999C14.4 16.0028 13.9971 15.5999 13.5 15.5999H10.5C10.003 15.5999 9.60002 16.0028 9.60002 16.4999V20.6999C9.60002 21.197 9.19708 21.5999 8.70002 21.5999H3.30002C2.80297 21.5999 2.40002 21.197 2.40002 20.6999C2.40002 20.2028 2.80297 19.7999 3.30002 19.7999H3.60002V10.8386Z" fill="#6C737F"/>
</svg>
