<svg width="34" height="35" viewBox="0 0 34 35" fill="none" xmlns="http://www.w3.org/2000/svg">
<path fill-rule="evenodd" clip-rule="evenodd" d="M3.1875 17.4845C3.1875 9.85606 9.37157 3.672 17 3.672C24.6284 3.672 30.8125 9.85606 30.8125 17.4845C30.8125 25.1129 24.6284 31.297 17 31.297C9.37157 31.297 3.1875 25.1129 3.1875 17.4845ZM22.1146 14.9146C22.4557 14.4371 22.3451 13.7735 21.8676 13.4324C21.3901 13.0913 20.7265 13.2019 20.3854 13.6794L15.8019 20.0963L13.5013 17.7957C13.0864 17.3808 12.4136 17.3808 11.9987 17.7957C11.5838 18.2106 11.5838 18.8834 11.9987 19.2983L15.1862 22.4858C15.407 22.7066 15.7139 22.8191 16.0251 22.7934C16.3364 22.7676 16.6206 22.6062 16.8021 22.3521L22.1146 14.9146Z" fill="#072E51"/>
</svg>
