<svg width="40" height="40" viewBox="0 0 40 40" fill="none" xmlns="http://www.w3.org/2000/svg">
<rect width="40" height="40" rx="20" fill="#ECFDF3"/>
<path d="M17.5303 20.2197C17.2374 19.9268 16.7626 19.9268 16.4697 20.2197C16.1768 20.5126 16.1768 20.9874 16.4697 21.2803L17.5303 20.2197ZM19.25 23L18.7197 23.5303C18.8756 23.6862 19.0921 23.7656 19.3119 23.7474C19.5316 23.7293 19.7322 23.6153 19.8603 23.4359L19.25 23ZM23.6103 18.1859C23.8511 17.8489 23.773 17.3805 23.4359 17.1397C23.0989 16.8989 22.6305 16.977 22.3897 17.3141L23.6103 18.1859ZM28.25 20C28.25 24.5563 24.5563 28.25 20 28.25V29.75C25.3848 29.75 29.75 25.3848 29.75 20H28.25ZM20 28.25C15.4437 28.25 11.75 24.5563 11.75 20H10.25C10.25 25.3848 14.6152 29.75 20 29.75V28.25ZM11.75 20C11.75 15.4437 15.4437 11.75 20 11.75V10.25C14.6152 10.25 10.25 14.6152 10.25 20H11.75ZM20 11.75C24.5563 11.75 28.25 15.4437 28.25 20H29.75C29.75 14.6152 25.3848 10.25 20 10.25V11.75ZM16.4697 21.2803L18.7197 23.5303L19.7803 22.4697L17.5303 20.2197L16.4697 21.2803ZM19.8603 23.4359L23.6103 18.1859L22.3897 17.3141L18.6397 22.5641L19.8603 23.4359Z" fill="#067647"/>
</svg>
