<svg viewBox="0 0 12 14" fill="none" xmlns="http://www.w3.org/2000/svg" stroke="#1C5D97">
    <path d="M3.8125 4.375V3.56313C3.8125 2.90106 4.30541 2.33926 4.96522 2.28449C5.18296 2.26642 5.40142 2.25084 5.62056 2.23778M8.1875 10.5H9.5C10.2249 10.5 10.8125 9.91237 10.8125 9.1875V3.56313C10.8125 2.90105 10.3196 2.33926 9.65978 2.28449C9.44204 2.26642 9.22358 2.25084 9.00445 2.23778M8.1875 10.9375V9.84375C8.1875 8.75644 7.30606 7.875 6.21875 7.875H5.34375C4.98131 7.875 4.6875 7.58119 4.6875 7.21875V6.34375C4.6875 5.25644 3.80606 4.375 2.71875 4.375H2.0625M9.00445 2.23778C8.83923 1.70191 8.34009 1.3125 7.75 1.3125H6.875C6.28491 1.3125 5.78577 1.70191 5.62056 2.23778M9.00445 2.23778C9.04218 2.36018 9.0625 2.49022 9.0625 2.625V3.0625H5.5625V2.625C5.5625 2.49022 5.58282 2.36018 5.62056 2.23778M2.9375 4.375H1.84375C1.48131 4.375 1.1875 4.66881 1.1875 5.03125V12.0313C1.1875 12.3937 1.48131 12.6875 1.84375 12.6875H7.53125C7.89369 12.6875 8.1875 12.3937 8.1875 12.0313V9.625C8.1875 6.72551 5.837 4.375 2.9375 4.375Z" stroke-width="1" stroke-linecap="round" stroke-linejoin="round"/>
</svg>
    