<svg width="16" height="16" viewBox="0 0 16 16" fill="none" xmlns="http://www.w3.org/2000/svg">
<path d="M8.99023 3.6543C8.99023 3.24008 8.65445 2.9043 8.24023 2.9043C7.82602 2.9043 7.49023 3.24008 7.49023 3.6543H8.99023ZM8.24023 8.1543H7.49023C7.49023 8.56851 7.82602 8.9043 8.24023 8.9043V8.1543ZM11.6152 8.9043C12.0294 8.9043 12.3652 8.56851 12.3652 8.1543C12.3652 7.74008 12.0294 7.4043 11.6152 7.4043V8.9043ZM14.2402 8.1543C14.2402 11.468 11.5539 14.1543 8.24023 14.1543V15.6543C12.3824 15.6543 15.7402 12.2964 15.7402 8.1543H14.2402ZM8.24023 14.1543C4.92653 14.1543 2.24023 11.468 2.24023 8.1543H0.740234C0.740234 12.2964 4.0981 15.6543 8.24023 15.6543V14.1543ZM2.24023 8.1543C2.24023 4.84059 4.92653 2.1543 8.24023 2.1543V0.654297C4.0981 0.654297 0.740234 4.01216 0.740234 8.1543H2.24023ZM8.24023 2.1543C11.5539 2.1543 14.2402 4.84059 14.2402 8.1543H15.7402C15.7402 4.01216 12.3824 0.654297 8.24023 0.654297V2.1543ZM7.49023 3.6543V8.1543H8.99023V3.6543H7.49023ZM11.6152 7.4043H8.24023V8.9043H11.6152V7.4043Z" fill="#6D7480"/>
</svg>
