<svg width="20" height="20" viewBox="0 0 25 25" fill="none" xmlns="http://www.w3.org/2000/svg">
<path d="M10.125 2.25H5.625C5.00368 2.25 4.5 2.75368 4.5 3.375V20.625C4.5 21.2463 5.00368 21.75 5.625 21.75H18.375C18.9963 21.75 19.5 21.2463 19.5 20.625V11.625M10.125 2.25H10.5C15.4706 2.25 19.5 6.27944 19.5 11.25V11.625M10.125 2.25C11.989 2.25 13.5 3.76104 13.5 5.625V7.125C13.5 7.74632 14.0037 8.25 14.625 8.25H16.125C17.989 8.25 19.5 9.76104 19.5 11.625M9 15L11.25 17.25L15 12" stroke="#072E51" stroke-width="1.5" stroke-linecap="round" stroke-linejoin="round"/>
<rect x="13" y="13" width="12" height="12" rx="6" fill="white"/>
<path fill-rule="evenodd" clip-rule="evenodd" d="M19.0002 23.8002C21.6512 23.8002 23.8002 21.6512 23.8002 19.0002C23.8002 16.3492 21.6512 14.2002 19.0002 14.2002C16.3492 14.2002 14.2002 16.3492 14.2002 19.0002C14.2002 21.6512 16.3492 23.8002 19.0002 23.8002ZM19.4502 17.0502C19.4502 16.8017 19.2487 16.6002 19.0002 16.6002C18.7517 16.6002 18.5502 16.8017 18.5502 17.0502V18.5502H17.0502C16.8017 18.5502 16.6002 18.7517 16.6002 19.0002C16.6002 19.2487 16.8017 19.4502 17.0502 19.4502H18.5502V20.9502C18.5502 21.1987 18.7517 21.4002 19.0002 21.4002C19.2487 21.4002 19.4502 21.1987 19.4502 20.9502V19.4502H20.9502C21.1987 19.4502 21.4002 19.2487 21.4002 19.0002C21.4002 18.7517 21.1987 18.5502 20.9502 18.5502H19.4502V17.0502Z" fill="#072E51"/>
</svg>
