<svg width="152" height="100" viewBox="0 0 152 100" fill="none" xmlns="http://www.w3.org/2000/svg">
<path fill-rule="evenodd" clip-rule="evenodd" d="M10.239 90.0587C24.8749 100.207 41.4989 91.1782 53.9567 87.4853C63.8517 84.552 96.9505 99.0307 113.394 99.0307C129.838 99.0307 169.048 85.9608 141.499 43.8796C103.515 -14.1405 78.3966 4.60351 53.9567 24.733C29.5169 44.8625 29.5169 33.3629 14.3802 44.8625C-0.756558 56.3621 -4.39685 79.9102 10.239 90.0587Z" fill="#FAFBFC"/>
<path fill-rule="evenodd" clip-rule="evenodd" d="M5.33973 9.80664C5.48228 9.80664 5.59784 9.9222 5.59784 10.0647V12.5167H8.0498C8.19235 12.5167 8.3079 12.6323 8.3079 12.7748V14.0653C8.3079 14.2079 8.19235 14.3234 8.0498 14.3234H5.59784V16.7754C5.59784 16.9179 5.48228 17.0335 5.33973 17.0335H4.04922C3.90668 17.0335 3.79112 16.9179 3.79112 16.7754V14.3234H1.33916C1.19661 14.3234 1.08105 14.2079 1.08105 14.0653V12.7748C1.08105 12.6323 1.19661 12.5167 1.33916 12.5167H3.79112V10.0647C3.79112 9.9222 3.90668 9.80664 4.04922 9.80664H5.33973Z" fill="#072E51" fill-opacity="0.12"/>
<path fill-rule="evenodd" clip-rule="evenodd" d="M15.4061 0C15.5487 0 15.6642 0.115556 15.6642 0.258102V2.71007H18.1162C18.2588 2.71007 18.3743 2.82562 18.3743 2.96817V4.25868C18.3743 4.40122 18.2588 4.51678 18.1162 4.51678H15.6642V6.96875C15.6642 7.11129 15.5487 7.22685 15.4061 7.22685H14.1156C13.9731 7.22685 13.8575 7.11129 13.8575 6.96875V4.51678H11.4056C11.263 4.51678 11.1475 4.40122 11.1475 4.25868V2.96817C11.1475 2.82562 11.263 2.71007 11.4056 2.71007H13.8575V0.258102C13.8575 0.115556 13.9731 0 14.1156 0H15.4061Z" fill="#072E51" fill-opacity="0.12"/>
<path fill-rule="evenodd" clip-rule="evenodd" d="M27.2811 16.2598C27.4237 16.2598 27.5392 16.3753 27.5392 16.5179V18.9698H29.9912C30.1338 18.9698 30.2493 19.0854 30.2493 19.2279V20.5184C30.2493 20.661 30.1338 20.7765 29.9912 20.7765H27.5392V23.2285C27.5392 23.3711 27.4237 23.4866 27.2811 23.4866H25.9906C25.8481 23.4866 25.7325 23.3711 25.7325 23.2285V20.7765H23.2806C23.138 20.7765 23.0225 20.661 23.0225 20.5184V19.2279C23.0225 19.0854 23.138 18.9698 23.2806 18.9698H25.7325V16.5179C25.7325 16.3753 25.8481 16.2598 25.9906 16.2598H27.2811Z" fill="#072E51" fill-opacity="0.12"/>
<path fill-rule="evenodd" clip-rule="evenodd" d="M144.72 0C145.057 0 145.328 0.019511 145.532 0.0598121L145.581 0.0718336L145.952 0.194903C146.151 0.262752 146.29 0.439393 146.31 0.644164L146.313 0.695896L146.313 3.24743L146.452 3.15893C146.651 3.02824 146.876 2.86724 147.159 2.65592L147.899 2.0986C148.077 1.96693 148.209 1.87382 148.359 1.77288C148.478 1.69294 148.623 1.66362 148.763 1.69179C148.884 1.71594 148.992 1.78112 149.07 1.8757L149.102 1.918L149.269 2.1691L150.828 4.81613C150.9 4.93781 150.92 5.08288 150.885 5.21712C150.849 5.35413 150.759 5.4711 150.636 5.54179C150.415 5.66926 150.175 5.82668 149.882 6.03348L149.522 6.29297L148.896 6.74969C148.777 6.83612 148.67 6.91223 148.571 6.98089L148.446 7.06679L148.598 7.1438C149.304 7.50965 149.986 7.94316 150.549 8.40152L150.7 8.52711L150.844 8.65374C151.03 8.82198 151.073 9.09688 150.946 9.31195L150.662 9.78977C150.55 9.97562 150.424 10.1838 150.291 10.4015L150.036 10.8134C149.707 11.3402 149.423 11.7738 149.206 12.0734C149.071 12.26 148.83 12.3368 148.614 12.268L148.564 12.2495L148.293 12.1334C148.266 12.1212 148.251 12.1141 148.236 12.1053L148.22 12.0957C148.078 12.0075 147.927 11.9176 147.756 11.8185L147.185 11.4958L146.753 11.2526C146.657 11.1982 146.57 11.1478 146.488 11.1002L146.314 10.9978L146.312 11.7943C146.308 12.4827 146.298 13.0839 146.281 13.5123L146.273 13.6928C146.26 13.9566 146.054 14.1677 145.794 14.193L145.737 14.1956L144.171 14.1488L143.323 14.1279L142.749 14.1183L142.562 14.1496C142.438 14.1703 142.311 14.1461 142.205 14.0838L142.16 14.0548L142.119 14.0212C141.998 13.9135 141.934 13.7572 141.943 13.5976C141.985 12.8699 141.987 12.2627 141.958 11.4619L141.938 10.9724L139.547 12.3023C139.329 12.4246 139.061 12.3774 138.896 12.2024L138.863 12.163L138.833 12.1197C138.256 11.1938 137.768 10.2429 137.203 8.94497C137.106 8.72351 137.173 8.46726 137.36 8.31993L137.403 8.29008L138.001 7.90796L138.167 7.82415C138.52 7.64374 139.037 7.35693 139.619 7.02463L139.759 6.94388L139.333 6.74773L138.874 6.54016C138.824 6.51697 138.773 6.4917 138.706 6.458L138.302 6.25337C138.082 6.14431 137.944 6.08342 137.82 6.04346L137.747 6.02178C137.717 6.01392 137.689 6.00358 137.661 5.99082L137.62 5.96987L137.348 5.81446C137.196 5.72784 137.097 5.57266 137.083 5.40051C137.068 5.22764 137.139 5.05837 137.274 4.94817C137.498 4.7643 137.651 4.52349 137.925 3.94416L138.128 3.51252C138.485 2.76236 138.718 2.40142 139.13 2.04493C139.293 1.90325 139.524 1.87546 139.715 1.96876L139.762 1.99461L141.918 3.3326L141.918 3.26598C141.917 3.10957 141.911 2.92863 141.9 2.70622L141.875 2.21169C141.839 1.43748 141.853 1.04379 141.955 0.582142C142.003 0.36461 142.183 0.20001 142.406 0.17119L142.709 0.134905C142.855 0.118474 143.025 0.100762 143.214 0.0831247C143.77 0.0310897 144.287 0 144.72 0ZM144.685 1.03215C144.211 1.03215 143.626 1.07414 143.055 1.13418L142.916 1.14903L142.914 1.17463L142.906 1.30297C142.895 1.5242 142.9 1.78659 142.917 2.15845L142.946 2.72864C142.948 2.77914 142.95 2.82552 142.952 2.87485C142.973 3.475 142.951 3.91965 142.855 4.34029C142.817 4.5076 142.701 4.64651 142.545 4.7122C142.404 4.77177 142.245 4.76673 142.11 4.70059L142.06 4.67292L139.571 3.10777L139.543 3.14528C139.403 3.33823 139.27 3.58331 139.106 3.93078L138.894 4.39155C138.756 4.68597 138.646 4.90418 138.537 5.08431L138.488 5.16306L138.527 5.18047C138.602 5.21456 138.678 5.25132 138.764 5.29417L139.26 5.54829L139.389 5.60978L139.979 5.88016L140.272 6.01882L140.363 6.063C140.718 6.23626 140.981 6.37749 141.145 6.48997C141.294 6.59263 141.381 6.76472 141.375 6.94632C141.369 7.12806 141.272 7.29452 141.116 7.38742L140.699 7.63346C140.552 7.71961 140.398 7.80959 140.237 7.90254L139.641 8.2449C139.244 8.47 138.911 8.65352 138.657 8.78477L138.533 8.84762L138.372 8.95281L138.438 9.10217C138.755 9.80671 139.051 10.4015 139.364 10.958L139.479 11.1595L142.16 9.64966C142.305 9.56809 142.477 9.56008 142.627 9.62482L142.682 9.65251C142.843 9.74548 142.943 9.91618 142.947 10.1028L142.954 10.3576L142.998 11.4305C143.019 12.0117 143.025 12.49 143.013 12.991L143.009 13.1055L143.402 13.1133C143.794 13.1221 144.263 13.1349 144.767 13.15L145.19 13.1629L145.2 12.7101C145.203 12.5151 145.205 12.3038 145.207 12.0786L145.211 11.3806C145.213 10.8301 145.211 10.3294 145.209 10.0436C145.208 9.8441 145.318 9.66045 145.496 9.56748C145.674 9.47589 145.887 9.49229 146.048 9.61025C146.331 9.81685 146.637 10.0134 147.026 10.2426L147.305 10.4044L148.148 10.8855L148.271 10.957L148.535 11.1155L148.564 11.0729C148.867 10.6108 149.241 10.0022 149.612 9.37622L149.728 9.18009L149.714 9.16856C149.049 8.64072 148.148 8.10501 147.282 7.72763L147.159 7.67516L147.148 7.67379C146.96 7.63903 146.805 7.50423 146.743 7.32013L146.729 7.27311C146.673 7.03462 146.786 6.78794 147.004 6.67638C147.272 6.53978 147.564 6.35533 147.924 6.10112L148.047 6.01376C148.149 5.94067 148.253 5.8648 148.381 5.76946L149.031 5.28919C149.231 5.14348 149.39 5.03051 149.537 4.93111L149.578 4.90347L148.444 2.95262L148.129 3.19298L147.819 3.43016C146.973 4.07328 146.526 4.35986 145.932 4.59917C145.769 4.66366 145.585 4.64343 145.44 4.5439C145.312 4.45571 145.229 4.31585 145.213 4.16248L145.209 4.10441L145.209 1.05962L145.17 1.05438C145.067 1.04235 144.936 1.03493 144.781 1.0328L144.685 1.03215Z" fill="#072E51" fill-opacity="0.12"/>
<path d="M67.667 35.5322C67.667 34.3295 68.642 33.3545 69.8447 33.3545H78.5557H79.2816C88.9034 33.3545 96.7034 41.1545 96.7034 50.7764V51.5023V68.9241C96.7034 70.1269 95.7284 71.1019 94.5257 71.1019H69.8447C68.642 71.1019 67.667 70.1269 67.667 68.9241V35.5322Z" fill="#072E51" fill-opacity="0.12"/>
<path d="M78.5557 33.3545H69.8447C68.642 33.3545 67.667 34.3295 67.667 35.5322V68.9241C67.667 70.1269 68.642 71.1019 69.8447 71.1019H94.5257C95.7284 71.1019 96.7034 70.1269 96.7034 68.9241V51.5023M78.5557 33.3545H79.2816C88.9034 33.3545 96.7034 41.1545 96.7034 50.7764V51.5023M78.5557 33.3545C82.1638 33.3545 85.0889 36.2795 85.0889 39.8877V42.7913C85.0889 43.9941 86.0639 44.9691 87.2666 44.9691H90.1702C93.7784 44.9691 96.7034 47.8941 96.7034 51.5023M76.3779 58.0355L80.7334 62.3909L87.9925 52.2282" stroke="white" stroke-width="2" stroke-linecap="round" stroke-linejoin="round"/>
</svg>
