<svg viewBox="0 0 20 20" fill="fill" xmlns="http://www.w3.org/2000/svg">
    <path d="M4.16663 10.0002C4.16663 10.4604 4.53972 10.8335 4.99996 10.8335C5.4602 10.8335 5.83329 10.4604 5.83329 10.0002C5.83329 9.53993 5.4602 9.16683 4.99996 9.16683C4.53972 9.16683 4.16663 9.53993 4.16663 10.0002Z" stroke="stroke" stroke-width="1" stroke-linecap="round" stroke-linejoin="round"/>
    <path d="M9.99996 10.0002C9.99996 10.4604 10.3731 10.8335 10.8333 10.8335C11.2936 10.8335 11.6666 10.4604 11.6666 10.0002C11.6666 9.53993 11.2936 9.16683 10.8333 9.16683C10.3731 9.16683 9.99996 9.53993 9.99996 10.0002Z" stroke="stroke" stroke-width="1" stroke-linecap="round" stroke-linejoin="round"/>
    <path d="M15.8333 10.0002C15.8333 10.4604 16.2064 10.8335 16.6666 10.8335C17.1269 10.8335 17.4999 10.4604 17.4999 10.0002C17.4999 9.53993 17.1269 9.16683 16.6666 9.16683C16.2064 9.16683 15.8333 9.53993 15.8333 10.0002Z" stroke="stroke" stroke-width="1" stroke-linecap="round" stroke-linejoin="round"/>
</svg>