<svg width="12" height="8" viewBox="0 0 12 8" fill="none" xmlns="http://www.w3.org/2000/svg">
<path d="M10 1.9375C10 1.62684 10.2518 1.375 10.5625 1.375C10.8732 1.375 11.125 1.62684 11.125 1.9375C11.125 2.24816 10.8732 2.5 10.5625 2.5C10.2518 2.5 10 2.24816 10 1.9375Z" fill="#475467"/>
<path d="M5.5 1.9375C5.5 1.62684 5.75184 1.375 6.0625 1.375C6.37316 1.375 6.625 1.62684 6.625 1.9375C6.625 2.24816 6.37316 2.5 6.0625 2.5C5.75184 2.5 5.5 2.24816 5.5 1.9375Z" fill="#475467"/>
<path d="M1 1.9375C1 1.62684 1.25184 1.375 1.5625 1.375C1.87316 1.375 2.125 1.62684 2.125 1.9375C2.125 2.24816 1.87316 2.5 1.5625 2.5C1.25184 2.5 1 2.24816 1 1.9375Z" fill="#475467"/>
<path d="M10 1.9375C10 1.62684 10.2518 1.375 10.5625 1.375C10.8732 1.375 11.125 1.62684 11.125 1.9375C11.125 2.24816 10.8732 2.5 10.5625 2.5C10.2518 2.5 10 2.24816 10 1.9375Z" stroke="#475467" stroke-linecap="round" stroke-linejoin="round"/>
<path d="M5.5 1.9375C5.5 1.62684 5.75184 1.375 6.0625 1.375C6.37316 1.375 6.625 1.62684 6.625 1.9375C6.625 2.24816 6.37316 2.5 6.0625 2.5C5.75184 2.5 5.5 2.24816 5.5 1.9375Z" stroke="#475467" stroke-linecap="round" stroke-linejoin="round"/>
<path d="M1 1.9375C1 1.62684 1.25184 1.375 1.5625 1.375C1.87316 1.375 2.125 1.62684 2.125 1.9375C2.125 2.24816 1.87316 2.5 1.5625 2.5C1.25184 2.5 1 2.24816 1 1.9375Z" stroke="#475467" stroke-linecap="round" stroke-linejoin="round"/>
<path d="M10 6.0625C10 5.75184 10.2518 5.5 10.5625 5.5C10.8732 5.5 11.125 5.75184 11.125 6.0625C11.125 6.37316 10.8732 6.625 10.5625 6.625C10.2518 6.625 10 6.37316 10 6.0625Z" fill="#475467"/>
<path d="M5.5 6.0625C5.5 5.75184 5.75184 5.5 6.0625 5.5C6.37316 5.5 6.625 5.75184 6.625 6.0625C6.625 6.37316 6.37316 6.625 6.0625 6.625C5.75184 6.625 5.5 6.37316 5.5 6.0625Z" fill="#475467"/>
<path d="M1 6.0625C1 5.75184 1.25184 5.5 1.5625 5.5C1.87316 5.5 2.125 5.75184 2.125 6.0625C2.125 6.37316 1.87316 6.625 1.5625 6.625C1.25184 6.625 1 6.37316 1 6.0625Z" fill="#475467"/>
<path d="M10 6.0625C10 5.75184 10.2518 5.5 10.5625 5.5C10.8732 5.5 11.125 5.75184 11.125 6.0625C11.125 6.37316 10.8732 6.625 10.5625 6.625C10.2518 6.625 10 6.37316 10 6.0625Z" stroke="#475467" stroke-linecap="round" stroke-linejoin="round"/>
<path d="M5.5 6.0625C5.5 5.75184 5.75184 5.5 6.0625 5.5C6.37316 5.5 6.625 5.75184 6.625 6.0625C6.625 6.37316 6.37316 6.625 6.0625 6.625C5.75184 6.625 5.5 6.37316 5.5 6.0625Z" stroke="#475467" stroke-linecap="round" stroke-linejoin="round"/>
<path d="M1 6.0625C1 5.75184 1.25184 5.5 1.5625 5.5C1.87316 5.5 2.125 5.75184 2.125 6.0625C2.125 6.37316 1.87316 6.625 1.5625 6.625C1.25184 6.625 1 6.37316 1 6.0625Z" stroke="#475467" stroke-linecap="round" stroke-linejoin="round"/>
</svg>
