<svg width="24" height="25" viewBox="0 0 24 25" fill="none" xmlns="http://www.w3.org/2000/svg">
<path d="M6 7.13487V6.25684C6 5.0142 7.00736 4.00684 8.25 4.00684H15.75C16.9926 4.00684 18 5.0142 18 6.25684V7.13487M6 7.13487C6.23458 7.05195 6.48702 7.00684 6.75 7.00684H17.25C17.513 7.00684 17.7654 7.05195 18 7.13487M6 7.13487C5.12611 7.44374 4.5 8.27717 4.5 9.25684V10.1349M18 7.13487C18.8739 7.44374 19.5 8.27717 19.5 9.25684V10.1349M19.5 10.1349C19.2654 10.052 19.013 10.0068 18.75 10.0068H5.25C4.98702 10.0068 4.73458 10.052 4.5 10.1349M19.5 10.1349C20.3739 10.4437 21 11.2772 21 12.2568V18.2568C21 19.4995 19.9926 20.5068 18.75 20.5068H5.25C4.00736 20.5068 3 19.4995 3 18.2568V12.2568C3 11.2772 3.62611 10.4437 4.5 10.1349" stroke="#384250" stroke-width="1.5" stroke-linecap="round" stroke-linejoin="round"/>
</svg>
