<svg viewBox="0 0 26 22" fill="none" xmlns="http://www.w3.org/2000/svg">
<path d="M1.33337 5.16699L10.8591 11.835C11.6305 12.375 12.0162 12.6449 12.4357 12.7495C12.8063 12.8419 13.1938 12.8419 13.5644 12.7495C13.9839 12.6449 14.3696 12.375 15.141 11.835L24.6667 5.16699M6.93337 20.3337H19.0667C21.0269 20.3337 22.007 20.3337 22.7557 19.9522C23.4142 19.6166 23.9497 19.0812 24.2852 18.4226C24.6667 17.6739 24.6667 16.6938 24.6667 14.7337V7.26699C24.6667 5.30681 24.6667 4.32672 24.2852 3.57803C23.9497 2.91946 23.4142 2.38403 22.7557 2.04847C22.007 1.66699 21.0269 1.66699 19.0667 1.66699H6.93337C4.97319 1.66699 3.9931 1.66699 3.24441 2.04847C2.58584 2.38403 2.05041 2.91946 1.71485 3.57803C1.33337 4.32672 1.33337 5.30681 1.33337 7.26699V14.7337C1.33337 16.6938 1.33337 17.6739 1.71485 18.4226C2.05041 19.0812 2.58584 19.6166 3.24441 19.9522C3.9931 20.3337 4.97319 20.3337 6.93337 20.3337Z" stroke="#344054" stroke-width="2" stroke-linecap="round" stroke-linejoin="round"/>
</svg>
