<svg viewBox="0 0 24 24" fill="none" xmlns="http://www.w3.org/2000/svg">
<g id="heroicons-mini/envelope-open">
<path id="Subtract" fill-rule="evenodd" clip-rule="evenodd" d="M2.52669 7.73658C1.71361 8.14312 1.2 8.97415 1.2 9.8832V19.1999C1.2 20.5254 2.27452 21.5999 3.6 21.5999H20.4C21.7255 21.5999 22.8 20.5254 22.8 19.1999V9.8832C22.8 8.97415 22.2864 8.14312 21.4733 7.73658L13.0733 3.53658C12.3976 3.19875 11.6024 3.19874 10.9267 3.53658L2.52669 7.73658ZM4.30249 12.5449C3.85791 12.3226 3.31731 12.5028 3.09502 12.9474C2.87273 13.392 3.05293 13.9326 3.49751 14.1549L10.5242 17.6683C11.4532 18.1328 12.5468 18.1328 13.4758 17.6683L20.4987 14.1568C20.9433 13.9345 21.1235 13.3939 20.9012 12.9493C20.6789 12.5047 20.1383 12.3245 19.6938 12.5468L12.6708 16.0583C12.2485 16.2694 11.7515 16.2694 11.3292 16.0583L4.30249 12.5449Z" fill="#6C737F"/>
</g>
</svg>
