<svg width="13" height="13" viewBox="0 0 13 13" fill="none" xmlns="http://www.w3.org/2000/svg">
    <path d="M0.416 8.384V7.04H1.792C1.776 6.832 1.76 6.624 1.76 6.4C1.76 6.208 1.76 6.016 1.776 5.84H0.416V4.496H2.016C2.688 2.064 4.72 0.672 7.296 0.672C9.984 0.672 11.84 2.32 12.064 4.608H10.192C9.968 3.248 8.848 2.288 7.296 2.288C5.76 2.288 4.544 3.088 3.984 4.496H8.576L8.192 5.84H3.68C3.664 6.016 3.648 6.208 3.648 6.4C3.648 6.624 3.664 6.832 3.68 7.04H7.728L7.36 8.384H4.016C4.592 9.744 5.808 10.512 7.296 10.512C8.848 10.512 10.032 9.456 10.24 8.08H12.112C11.856 10.352 10.016 12.128 7.296 12.128C4.784 12.128 2.752 10.768 2.032 8.384H0.416Z" fill="#384250"/>
    </svg>