<svg width="21" height="21" viewBox="0 0 21 21" fill="none" xmlns="http://www.w3.org/2000/svg">
<path d="M10.0001 2.5C12.2956 2.5 14.546 2.69337 16.7359 3.06472C17.1799 3.14002 17.5 3.52796 17.5 3.97835V4.84835C17.5 5.34563 17.3025 5.82254 16.9508 6.17417L12.4242 10.7008C12.0725 11.0525 11.875 11.5294 11.875 12.0267V14.4662C11.875 15.1764 11.4737 15.8256 10.8385 16.1432L8.125 17.5V12.0267C8.125 11.5294 7.92746 11.0525 7.57583 10.7008L3.04917 6.17417C2.69754 5.82254 2.5 5.34563 2.5 4.84835V3.97837C2.5 3.52798 2.82006 3.14004 3.26412 3.06474C5.45399 2.69338 7.70444 2.5 10.0001 2.5Z" stroke="#072E51" stroke-width="1.25" stroke-linecap="round" stroke-linejoin="round"/>
<rect x="10.833" y="10.8335" width="10" height="10" rx="5" fill="#F4F5F7"/>
<path fill-rule="evenodd" clip-rule="evenodd" d="M15.833 19.8335C18.0421 19.8335 19.833 18.0426 19.833 15.8335C19.833 13.6244 18.0421 11.8335 15.833 11.8335C13.6239 11.8335 11.833 13.6244 11.833 15.8335C11.833 18.0426 13.6239 19.8335 15.833 19.8335ZM16.208 14.2085C16.208 14.0014 16.0401 13.8335 15.833 13.8335C15.6259 13.8335 15.458 14.0014 15.458 14.2085V15.4585H14.208C14.0009 15.4585 13.833 15.6264 13.833 15.8335C13.833 16.0406 14.0009 16.2085 14.208 16.2085H15.458V17.4585C15.458 17.6656 15.6259 17.8335 15.833 17.8335C16.0401 17.8335 16.208 17.6656 16.208 17.4585V16.2085H17.458C17.6651 16.2085 17.833 16.0406 17.833 15.8335C17.833 15.6264 17.6651 15.4585 17.458 15.4585H16.208V14.2085Z" fill="#072E51"/>
</svg>
