<svg width="19" height="20" viewBox="0 0 19 20" fill="none" xmlns="http://www.w3.org/2000/svg">
<path fill-rule="evenodd" clip-rule="evenodd" d="M10 1.75C8.62316 1.75 7.34469 2.16143 6.27806 2.86788C5.93272 3.09661 5.46735 3.00207 5.23862 2.65674C5.0099 2.3114 5.10443 1.84603 5.44977 1.61731C6.75443 0.753202 8.31959 0.25 10 0.25C14.5563 0.25 18.25 3.94365 18.25 8.5C18.25 11.5153 17.6759 14.3983 16.6299 17.0442C16.4776 17.4294 16.0419 17.6182 15.6567 17.466C15.2715 17.3137 15.0827 16.8779 15.2349 16.4927C16.2127 14.0196 16.75 11.3235 16.75 8.5C16.75 4.77208 13.7279 1.75 10 1.75ZM4.15674 3.73863C4.50207 3.96735 4.59661 4.43272 4.36788 4.77806C3.66143 5.84469 3.25 7.12316 3.25 8.5C3.25 10.1132 2.78655 11.6204 1.98461 12.893C1.76378 13.2434 1.30067 13.3485 0.950235 13.1276C0.599802 12.9068 0.494743 12.4437 0.71558 12.0933C1.37094 11.0533 1.75 9.82215 1.75 8.5C1.75 6.81959 2.2532 5.25443 3.1173 3.94977C3.34603 3.60444 3.8114 3.5099 4.15674 3.73863ZM10 5.5C8.34314 5.5 7 6.84315 7 8.5C7 11.5997 5.82403 14.4266 3.89464 16.5556C3.61649 16.8626 3.14219 16.8859 2.83526 16.6077C2.52833 16.3296 2.50499 15.8553 2.78314 15.5484C4.4722 13.6845 5.5 11.2132 5.5 8.5C5.5 6.01472 7.51472 4 10 4C12.4853 4 14.5 6.01472 14.5 8.5C14.5 9.04724 14.4778 9.58967 14.4334 10.1264C14.3993 10.5392 14.037 10.8462 13.6242 10.8121C13.2114 10.778 12.9044 10.4157 12.9385 10.0029C12.9794 9.5078 13 9.00657 13 8.5C13 6.84315 11.6569 5.5 10 5.5ZM10.0003 7.75C10.4145 7.75 10.7503 8.08579 10.7503 8.5C10.7503 12.4082 9.32591 15.9855 6.96887 18.7384C6.69947 19.053 6.22601 19.0897 5.91138 18.8203C5.59674 18.5509 5.56006 18.0775 5.82946 17.7628C7.9626 15.2715 9.25031 12.0371 9.25031 8.5C9.25031 8.08579 9.5861 7.75 10.0003 7.75ZM13.2387 12.9331C13.6371 13.0467 13.8678 13.4617 13.7542 13.8601C13.1843 15.8576 12.3041 17.7239 11.1694 19.4035C10.9375 19.7467 10.4713 19.837 10.128 19.6051C9.78481 19.3732 9.69455 18.907 9.92644 18.5637C10.974 17.0132 11.7861 15.291 12.3117 13.4485C12.4254 13.0502 12.8404 12.8194 13.2387 12.9331Z" fill="#0F172A"/>
</svg>
