<svg viewBox="0 0 22 22" fill="none" xmlns="http://www.w3.org/2000/svg">
    <path d="M20.75 7.99997V8.90606C20.75 9.73379 20.2955 10.4947 19.5667 10.8871L13.0893 14.375M1.25 7.99997V8.90606C1.25 9.73379 1.70448 10.4947 2.43328 10.8871L8.91074 14.375M17.75 16.8846L13.0893 14.375M13.0893 14.375L12.0667 13.8244C11.4008 13.4658 10.5992 13.4658 9.93328 13.8244L8.91074 14.375M8.91074 14.375L4.25 16.8846M20.75 18.5C20.75 19.7426 19.7426 20.75 18.5 20.75H3.5C2.25736 20.75 1.25 19.7426 1.25 18.5L1.25 7.84388C1.25 7.01614 1.70448 6.25525 2.43328 5.86282L9.93328 1.82436C10.5992 1.46577 11.4008 1.46577 12.0667 1.82436L19.5667 5.86282C20.2955 6.25525 20.75 7.01615 20.75 7.84388V18.5Z" stroke="#072E51" stroke-width="1.5" stroke-linecap="round" stroke-linejoin="round"/>
    </svg>    