<svg width="40" height="43" viewBox="0 0 40 43" fill="none" xmlns="http://www.w3.org/2000/svg">
<rect y="3" width="40" height="40" rx="20" fill="#F2F4F6"/>
<path d="M21.8454 29.3623C22.6143 29.5951 23.4273 29.7199 24.2684 29.7199C25.6334 29.7199 26.9246 29.3912 28.0728 28.8058C28.075 28.7508 28.0761 28.6955 28.0761 28.6399C28.0761 26.4528 26.3714 24.6799 24.2684 24.6799C22.9595 24.6799 21.8048 25.3668 21.1195 26.4129M21.8454 29.3623V29.3599C21.8454 28.2915 21.5822 27.2871 21.1195 26.4129M21.8454 29.3623C21.8454 29.3966 21.8451 29.4307 21.8445 29.4648C20.126 30.5409 18.1129 31.1599 15.9608 31.1599C13.8087 31.1599 11.7955 30.5409 10.077 29.4648C10.0765 29.4299 10.0762 29.3949 10.0762 29.3599C10.0762 25.9799 12.7108 23.2399 15.9608 23.2399C18.1835 23.2399 20.1184 24.5215 21.1195 26.4129M19.0762 17.1199C19.0762 18.9093 17.6814 20.3599 15.9608 20.3599C14.2402 20.3599 12.8454 18.9093 12.8454 17.1199C12.8454 15.3305 14.2402 13.8799 15.9608 13.8799C17.6814 13.8799 19.0762 15.3305 19.0762 17.1199ZM26.6916 19.2799C26.6916 20.6716 25.6067 21.7999 24.2685 21.7999C22.9302 21.7999 21.8454 20.6716 21.8454 19.2799C21.8454 17.8881 22.9302 16.7599 24.2685 16.7599C25.6067 16.7599 26.6916 17.8881 26.6916 19.2799Z" stroke="#0F172A" stroke-width="1.5" stroke-linecap="round" stroke-linejoin="round"/>
<g clip-path="url(#clip0_3193_17358)">
<rect x="20.9238" y="23.48" width="11.0769" height="11.52" rx="5.53846" fill="#F2F4F6"/>
<path d="M25.3516 25.3711C25.3934 25.1108 25.61 24.9199 25.8638 24.9199H27.061C27.3148 24.9199 27.5315 25.1108 27.5732 25.3711L27.6717 25.986C27.7005 26.1656 27.8159 26.3151 27.969 26.4033C28.0032 26.423 28.0371 26.4434 28.0705 26.4644C28.2205 26.5586 28.403 26.5879 28.5671 26.5239L29.1287 26.3051C29.3664 26.2125 29.6336 26.3122 29.7605 26.5408L30.3592 27.6191C30.4861 27.8477 30.4355 28.1382 30.2395 28.306L29.7759 28.7028C29.6409 28.8184 29.574 28.9969 29.5773 29.1787C29.5776 29.1991 29.5778 29.2195 29.5778 29.2399C29.5778 29.2604 29.5776 29.2808 29.5773 29.3011C29.574 29.4829 29.6409 29.6614 29.7759 29.777L30.2395 30.1739C30.4355 30.3416 30.4861 30.6322 30.3592 30.8608L29.7605 31.9391C29.6336 32.1677 29.3664 32.2673 29.1287 32.1747L28.5671 31.9559C28.403 31.892 28.2205 31.9213 28.0705 32.0155C28.0371 32.0365 28.0032 32.0568 27.969 32.0765C27.8159 32.1647 27.7005 32.3143 27.6717 32.4938L27.5732 33.1087C27.5315 33.3691 27.3148 33.5599 27.061 33.5599H25.8638C25.61 33.5599 25.3934 33.3691 25.3516 33.1087L25.2531 32.4938C25.2243 32.3143 25.109 32.1647 24.9558 32.0765C24.9216 32.0568 24.8878 32.0365 24.8543 32.0155C24.7043 31.9213 24.5219 31.892 24.3578 31.9559L23.7961 32.1747C23.5584 32.2674 23.2912 32.1677 23.1643 31.9391L22.5657 30.8608C22.4388 30.6322 22.4894 30.3417 22.6853 30.1739L23.1489 29.777C23.2839 29.6614 23.3508 29.4829 23.3476 29.3011C23.3472 29.2808 23.347 29.2604 23.347 29.2399C23.347 29.2195 23.3472 29.1991 23.3476 29.1787C23.3508 28.9969 23.2839 28.8184 23.1489 28.7028L22.6853 28.306C22.4894 28.1382 22.4388 27.8477 22.5657 27.6191L23.1643 26.5408C23.2912 26.3122 23.5584 26.2125 23.7961 26.3051L24.3577 26.5239C24.5218 26.5879 24.7043 26.5586 24.8543 26.4644C24.8878 26.4434 24.9216 26.423 24.9558 26.4033C25.109 26.3151 25.2243 26.1656 25.2531 25.986L25.3516 25.3711Z" stroke="#0F172A" stroke-width="1.5" stroke-linecap="round" stroke-linejoin="round"/>
<path d="M27.8469 29.2399C27.8469 30.0352 27.227 30.6799 26.4623 30.6799C25.6976 30.6799 25.0777 30.0352 25.0777 29.2399C25.0777 28.4446 25.6976 27.7999 26.4623 27.7999C27.227 27.7999 27.8469 28.4446 27.8469 29.2399Z" stroke="#0F172A" stroke-width="1.5" stroke-linecap="round" stroke-linejoin="round"/>
</g>
<defs>
<clipPath id="clip0_3193_17358">
<rect x="20.9238" y="23.48" width="11.0769" height="11.52" rx="5.53846" fill="white"/>
</clipPath>
</defs>
</svg>
