<svg viewBox="0 0 24 24" fill="none" xmlns="http://www.w3.org/2000/svg">
<path fill-rule="evenodd" clip-rule="evenodd" d="M9.60002 8.40039C9.60002 5.08668 12.2863 2.40039 15.6 2.40039C18.9137 2.40039 21.6 5.08668 21.6 8.40039C21.6 11.7141 18.9137 14.4004 15.6 14.4004C15.0212 14.4004 14.4615 14.3184 13.932 14.1655L11.6486 16.4489C11.4235 16.674 11.1183 16.8004 10.8 16.8004H9.60002V18.0004C9.60002 18.6631 9.06277 19.2004 8.40002 19.2004H7.20002V20.4004C7.20002 21.0631 6.66277 21.6004 6.00002 21.6004H3.60002C2.93728 21.6004 2.40002 21.0631 2.40002 20.4004V18.0004C2.40002 17.6821 2.52645 17.3769 2.7515 17.1519L9.83493 10.0684C9.68198 9.53887 9.60002 8.9792 9.60002 8.40039ZM15.6 4.95039C15.1858 4.95039 14.85 5.28618 14.85 5.70039C14.85 6.1146 15.1858 6.45039 15.6 6.45039C16.677 6.45039 17.55 7.32343 17.55 8.40039C17.55 8.8146 17.8858 9.15039 18.3 9.15039C18.7142 9.15039 19.05 8.8146 19.05 8.40039C19.05 6.49501 17.5054 4.95039 15.6 4.95039Z" fill="#6C737F"/>
</svg>
