<svg width="38" height="40" viewBox="0 0 38 40" fill="none" xmlns="http://www.w3.org/2000/svg">
<path d="M25 8.49967C27.5773 8.49967 29.6667 10.589 29.6667 13.1663M34.3333 13.1663C34.3333 18.321 30.1547 22.4997 25 22.4997C24.4544 22.4997 23.9197 22.4529 23.3998 22.363C22.524 22.2117 21.5965 22.4032 20.968 23.0317L16.8333 27.1663H13.3333V30.6663H9.83333V34.1663H4V29.7828C4 28.8545 4.36875 27.9643 5.02513 27.3079L15.1347 17.1983C15.7631 16.5699 15.9546 15.6424 15.8033 14.7665C15.7135 14.2466 15.6667 13.7119 15.6667 13.1663C15.6667 8.01168 19.8453 3.83301 25 3.83301C30.1547 3.83301 34.3333 8.01168 34.3333 13.1663Z" stroke="#072E51" stroke-width="2.33333" stroke-linecap="round" stroke-linejoin="round"/>
<path fill-rule="evenodd" clip-rule="evenodd" d="M26.5 25.167C22.9101 25.167 20 28.0771 20 31.667C20 35.2568 22.9101 38.167 26.5 38.167C30.0899 38.167 33 35.2568 33 31.667C33 28.0771 30.0899 25.167 26.5 25.167ZM27 29.667C27 29.3909 26.7761 29.167 26.5 29.167C26.2239 29.167 26 29.3909 26 29.667V31.167H24.5C24.2239 31.167 24 31.3909 24 31.667C24 31.9431 24.2239 32.167 24.5 32.167H26V33.667C26 33.9431 26.2239 34.167 26.5 34.167C26.7761 34.167 27 33.9431 27 33.667V32.167H28.5C28.7761 32.167 29 31.9431 29 31.667C29 31.3909 28.7761 31.167 28.5 31.167H27V29.667Z" fill="#072E51"/>
</svg>
