<svg xmlns="http://www.w3.org/2000/svg" viewBox="0 0 28 28" fill="none">
    <path d="M18.375 6.125C20.308 6.125 21.875 7.692 21.875 9.625M25.375 9.625C25.375 13.491 22.241 16.625 18.375 16.625C17.9658 16.625 17.5648 16.5899 17.1748 16.5225C16.518 16.409 15.8224 16.5526 15.351 17.024L12.25 20.125H9.625V22.75H7V25.375H2.625V22.0873C2.625 21.3911 2.90156 20.7234 3.39384 20.2312L10.976 12.649C11.4474 12.1776 11.591 11.482 11.4775 10.8252C11.4101 10.4352 11.375 10.0342 11.375 9.625C11.375 5.75901 14.509 2.625 18.375 2.625C22.241 2.625 25.375 5.75901 25.375 9.625Z" stroke="#0F172A" stroke-width="1.5" stroke-linecap="round" stroke-linejoin="round"/>
</svg>
