<svg width="22" height="22" viewBox="0 0 22 22" fill="none" xmlns="http://www.w3.org/2000/svg">
<path d="M8.8132 15.1606L8 18.0068L7.1868 15.1606C6.75968 13.6657 5.59112 12.4972 4.09619 12.07L1.25 11.2568L4.09619 10.4436C5.59113 10.0165 6.75968 8.84796 7.1868 7.35302L8 4.50684L8.8132 7.35303C9.24032 8.84796 10.4089 10.0165 11.9038 10.4436L14.75 11.2568L11.9038 12.07C10.4089 12.4972 9.24032 13.6657 8.8132 15.1606Z" stroke="#384250" stroke-width="1.5" stroke-linecap="round" stroke-linejoin="round"/>
<path d="M17.2589 7.97137L17 9.00684L16.7411 7.97137C16.4388 6.76216 15.4947 5.818 14.2855 5.5157L13.25 5.25684L14.2855 4.99797C15.4947 4.69567 16.4388 3.75151 16.7411 2.5423L17 1.50684L17.2589 2.5423C17.5612 3.75151 18.5053 4.69567 19.7145 4.99797L20.75 5.25684L19.7145 5.5157C18.5053 5.818 17.5612 6.76216 17.2589 7.97137Z" stroke="#384250" stroke-width="1.5" stroke-linecap="round" stroke-linejoin="round"/>
<path d="M15.8942 19.8241L15.5 21.0068L15.1058 19.8241C14.8818 19.1522 14.3546 18.625 13.6827 18.4011L12.5 18.0068L13.6827 17.6126C14.3546 17.3886 14.8818 16.8614 15.1058 16.1896L15.5 15.0068L15.8942 16.1896C16.1182 16.8614 16.6454 17.3886 17.3173 17.6126L18.5 18.0068L17.3173 18.4011C16.6454 18.625 16.1182 19.1522 15.8942 19.8241Z" stroke="#384250" stroke-width="1.5" stroke-linecap="round" stroke-linejoin="round"/>
</svg>
