<svg viewBox="0 0 20 4" fill="none" xmlns="http://www.w3.org/2000/svg">
    <path d="M0.899902 2.00005C0.899902 0.923093 1.77295 0.0500488 2.8499 0.0500488C3.92686 0.0500488 4.7999 0.923093 4.7999 2.00005C4.7999 3.077 3.92686 3.95005 2.8499 3.95005C1.77295 3.95005 0.899902 3.077 0.899902 2.00005Z" fill="#0F172A"/>
    <path d="M8.0499 2.00005C8.0499 0.923093 8.92295 0.0500488 9.9999 0.0500488C11.0769 0.0500488 11.9499 0.923093 11.9499 2.00005C11.9499 3.077 11.0769 3.95005 9.9999 3.95005C8.92295 3.95005 8.0499 3.077 8.0499 2.00005Z" fill="#0F172A"/>
    <path d="M17.1499 0.0500488C16.0729 0.0500488 15.1999 0.923093 15.1999 2.00005C15.1999 3.077 16.0729 3.95005 17.1499 3.95005C18.2269 3.95005 19.0999 3.077 19.0999 2.00005C19.0999 0.923093 18.2269 0.0500488 17.1499 0.0500488Z" fill="#0F172A"/>
</svg>
