<svg width="25" height="25" viewBox="0 0 25 25" fill="none" xmlns="http://www.w3.org/2000/svg">
<path d="M2.25 21H21.75M3.75 3V21M14.25 3V21M20.25 7.5V21M6.75 6.75H7.5M6.75 9.75H7.5M6.75 12.75H7.5M10.5 6.75H11.25M10.5 9.75H11.25M10.5 12.75H11.25M6.75 21V17.625C6.75 17.0037 7.25368 16.5 7.875 16.5H10.125C10.7463 16.5 11.25 17.0037 11.25 17.625V21M3 3H15M14.25 7.5H21M17.25 11.25H17.2575V11.2575H17.25V11.25ZM17.25 14.25H17.2575V14.2575H17.25V14.25ZM17.25 17.25H17.2575V17.2575H17.25V17.25Z" stroke="#072E51" stroke-width="1.5" stroke-linecap="round" stroke-linejoin="round"/>
<rect x="13" y="13" width="12" height="12" rx="6" fill="white"/>
<path fill-rule="evenodd" clip-rule="evenodd" d="M18.9992 23.8C21.6502 23.8 23.7992 21.6509 23.7992 19C23.7992 16.349 21.6502 14.2 18.9992 14.2C16.3483 14.2 14.1992 16.349 14.1992 19C14.1992 21.6509 16.3483 23.8 18.9992 23.8ZM19.4492 17.05C19.4492 16.8014 19.2477 16.6 18.9992 16.6C18.7507 16.6 18.5492 16.8014 18.5492 17.05V18.55H17.0492C16.8007 18.55 16.5992 18.7514 16.5992 19C16.5992 19.2485 16.8007 19.45 17.0492 19.45H18.5492V20.95C18.5492 21.1985 18.7507 21.4 18.9992 21.4C19.2477 21.4 19.4492 21.1985 19.4492 20.95V19.45H20.9492C21.1977 19.45 21.3992 19.2485 21.3992 19C21.3992 18.7514 21.1977 18.55 20.9492 18.55H19.4492V17.05Z" fill="#072E51"/>
</svg>
