<svg width="40" height="40" viewBox="0 0 40 40" fill="none" xmlns="http://www.w3.org/2000/svg">
<rect width="40" height="40" rx="20" fill="#F4F5F7"/>
<path d="M24.5 26.75H15.5M24.5 26.75C26.1569 26.75 27.5 28.0931 27.5 29.75H12.5C12.5 28.0931 13.8432 26.75 15.5 26.75M24.5 26.75V23.375C24.5 22.7537 23.9963 22.25 23.375 22.25H22.5034M15.5 26.75V23.375C15.5 22.7537 16.0037 22.25 16.625 22.25H17.4966M22.5034 22.25H17.4966M22.5034 22.25C21.956 21.3038 21.6095 20.227 21.5219 19.0777M17.4966 22.25C18.044 21.3038 18.3905 20.227 18.4781 19.0777M13.25 12.2364C12.2677 12.3792 11.2954 12.5528 10.334 12.756C10.7843 15.4235 12.9949 17.4928 15.7297 17.7277M13.25 12.2364V12.5C13.25 14.6078 14.2161 16.4899 15.7297 17.7277M13.25 12.2364V10.7209C15.4554 10.4105 17.709 10.25 20 10.25C22.291 10.25 24.5446 10.4105 26.75 10.7209V12.2364M15.7297 17.7277C16.5172 18.3719 17.453 18.8415 18.4781 19.0777M26.75 12.2364V12.5C26.75 14.6078 25.7839 16.4899 24.2704 17.7277M26.75 12.2364C27.7323 12.3792 28.7047 12.5528 29.6661 12.756C29.2157 15.4235 27.0051 17.4928 24.2704 17.7277M24.2704 17.7277C23.4828 18.3719 22.547 18.8415 21.5219 19.0777M21.5219 19.0777C21.0328 19.1904 20.5234 19.25 20 19.25C19.4767 19.25 18.9672 19.1904 18.4781 19.0777" stroke="#072E51" stroke-width="1.5" stroke-linecap="round" stroke-linejoin="round"/>
</svg>
