<svg width="16" height="16" viewBox="0 0 16 16" fill="none" xmlns="http://www.w3.org/2000/svg">
<path d="M12.6659 7.82505C12.873 7.82505 13.0586 7.69746 13.1327 7.50418C13.2069 7.3109 13.1543 7.0919 13.0004 6.9534L12.0579 6.10513C11.986 6.04047 11.9802 5.92982 12.0449 5.85798C12.1095 5.78614 12.2202 5.78032 12.292 5.84497L14.542 7.86997C14.5789 7.90316 14.6 7.95044 14.6 8.00005C14.6 8.04966 14.5789 8.09694 14.542 8.13013L12.292 10.1551C12.2202 10.2198 12.1095 10.214 12.0449 10.1421C11.9802 10.0703 11.986 9.95963 12.0579 9.89497L13.0004 9.0467C13.1543 8.9082 13.2069 8.6892 13.1327 8.49592C13.0586 8.30263 12.873 8.17505 12.6659 8.17505H4.07495C3.9783 8.17505 3.89995 8.0967 3.89995 8.00005C3.89995 7.9034 3.9783 7.82505 4.07495 7.82505H12.6659ZM1.19995 2.82505C1.19995 1.98281 1.88272 1.30005 2.72495 1.30005H7.67495C8.51719 1.30005 9.19995 1.98281 9.19995 2.82505V4.62505C9.19995 4.7217 9.1216 4.80005 9.02495 4.80005C8.9283 4.80005 8.84995 4.7217 8.84995 4.62505V2.82505C8.84995 2.17611 8.32389 1.65005 7.67495 1.65005H2.72495C2.07602 1.65005 1.54995 2.17611 1.54995 2.82505V13.175C1.54995 13.824 2.07602 14.35 2.72495 14.35H7.67495C8.32389 14.35 8.84995 13.824 8.84995 13.175V11.375C8.84995 11.2784 8.9283 11.2 9.02495 11.2C9.1216 11.2 9.19995 11.2784 9.19995 11.375V13.175C9.19995 14.0173 8.51719 14.7 7.67495 14.7H2.72495C1.88272 14.7 1.19995 14.0173 1.19995 13.175V2.82505Z" stroke="white" stroke-linecap="round" stroke-linejoin="round"/>
</svg>
