<svg width="20" height="18" viewBox="0 0 20 18" fill="none" xmlns="http://www.w3.org/2000/svg">
<path fill-rule="evenodd" clip-rule="evenodd" d="M2.75517 7.05889C3.82723 3.0579 7.93976 0.683529 11.9408 1.75559C13.2617 2.10955 14.4035 2.79374 15.3034 3.69528L17.2065 5.59835H14.0228C13.6085 5.59835 13.2728 5.93414 13.2728 6.34835C13.2728 6.76256 13.6085 7.09835 14.0228 7.09835H19.0154C19.2143 7.09835 19.4051 7.01932 19.5457 6.87864C19.6864 6.73797 19.7654 6.54717 19.7654 6.34824V1.35575C19.7654 0.941533 19.4296 0.605747 19.0154 0.605747C18.6011 0.605747 18.2654 0.941533 18.2654 1.35575V4.53591L16.3651 2.63561C15.2839 1.55253 13.9114 0.730705 12.329 0.306704C7.52779 -0.979772 2.59276 1.86947 1.30628 6.67067C1.19908 7.07076 1.43651 7.48202 1.83661 7.58922C2.23671 7.69643 2.64796 7.45899 2.75517 7.05889ZM18.1626 10.4108C17.7625 10.3036 17.3513 10.5411 17.2441 10.9412C16.172 14.9422 12.0595 17.3165 8.05847 16.2445C6.73749 15.8905 5.5957 15.2063 4.69585 14.3048L2.79396 12.4017H5.97677C6.39099 12.4017 6.72677 12.0659 6.72677 11.6517C6.72677 11.2375 6.39099 10.9017 5.97677 10.9017L0.984131 10.9017C0.569918 10.9017 0.234131 11.2375 0.234131 11.6517V16.6443C0.234131 17.0585 0.569918 17.3943 0.984131 17.3943C1.39834 17.3943 1.73413 17.0585 1.73413 16.6443V13.4632L3.6342 15.3645C4.71539 16.4477 6.08772 17.2693 7.67024 17.6934C12.4714 18.9798 17.4065 16.1306 18.6929 11.3294C18.8001 10.9293 18.5627 10.5181 18.1626 10.4108Z" fill="#0F172A"/>
</svg>
