<svg xmlns="http://www.w3.org/2000/svg" width="24" height="24" viewBox="0 0 26 24" fill="none">
    <path d="M3.75 12H20.25M3.75 15.75H20.25M3.75 19.5H20.25M5.625 4.5H18.375C19.4105 4.5 20.25 5.33947 20.25 6.375C20.25 7.41053 19.4105 8.25 18.375 8.25H5.625C4.58947 8.25 3.75 7.41053 3.75 6.375C3.75 5.33947 4.58947 4.5 5.625 4.5Z" stroke="#072E51" stroke-width="1.5" stroke-linecap="round" stroke-linejoin="round"/>
    <rect x="14" y="12" width="12" height="12" rx="6" fill="#F4F5F7"/>
    <path fill-rule="evenodd" clip-rule="evenodd" d="M20 22.8C22.651 22.8 24.8 20.6509 24.8 18C24.8 15.349 22.651 13.2 20 13.2C17.349 13.2 15.2 15.349 15.2 18C15.2 20.6509 17.349 22.8 20 22.8ZM20.45 16.05C20.45 15.8014 20.2485 15.6 20 15.6C19.7515 15.6 19.55 15.8014 19.55 16.05V17.55H18.05C17.8015 17.55 17.6 17.7514 17.6 18C17.6 18.2485 17.8015 18.45 18.05 18.45H19.55V19.95C19.55 20.1985 19.7515 20.4 20 20.4C20.2485 20.4 20.45 20.1985 20.45 19.95V18.45H21.95C22.1985 18.45 22.4 18.2485 22.4 18C22.4 17.7514 22.1985 17.55 21.95 17.55H20.45V16.05Z" fill="#072E51"/>
    </svg>