<svg viewBox="0 0 20 20" fill="none" xmlns="http://www.w3.org/2000/svg">
<path d="M7.9957 3.28338C8.07105 2.83132 8.46216 2.5 8.92045 2.5H11.0821C11.5404 2.5 11.9315 2.83132 12.0068 3.28338L12.1848 4.35092C12.2367 4.66262 12.445 4.92226 12.7215 5.0753C12.7833 5.10952 12.8444 5.14486 12.9048 5.18131C13.1756 5.34487 13.5051 5.39572 13.8014 5.28471L14.8154 4.90481C15.2446 4.74404 15.7271 4.91709 15.9562 5.31398L17.037 7.18601C17.2662 7.5829 17.1748 8.08728 16.821 8.37855L15.984 9.06756C15.7403 9.26823 15.6194 9.5781 15.6253 9.89377C15.6259 9.9291 15.6263 9.96451 15.6263 10C15.6263 10.0355 15.6259 10.0709 15.6253 10.1062C15.6194 10.4219 15.7403 10.7318 15.984 10.9324L16.821 11.6214C17.1748 11.9127 17.2662 12.4171 17.037 12.814L15.9562 14.686C15.7271 15.0829 15.2446 15.256 14.8154 15.0952L13.8014 14.7153C13.5051 14.6043 13.1756 14.6551 12.9048 14.8187C12.8444 14.8551 12.7833 14.8905 12.7215 14.9247C12.445 15.0777 12.2367 15.3374 12.1848 15.6491L12.0068 16.7166C11.9315 17.1687 11.5404 17.5 11.0821 17.5H8.92045C8.46216 17.5 8.07105 17.1687 7.9957 16.7166L7.81778 15.6491C7.76583 15.3374 7.55752 15.0777 7.28105 14.9247C7.21923 14.8905 7.15813 14.8551 7.09777 14.8187C6.82691 14.6551 6.49747 14.6043 6.20117 14.7153L5.18711 15.0952C4.75795 15.256 4.27546 15.0829 4.04632 14.686L2.9655 12.814C2.73635 12.4171 2.82773 11.9127 3.18155 11.6215L4.01851 10.9324C4.26226 10.7318 4.3831 10.4219 4.37725 10.1062C4.3766 10.0709 4.37627 10.0355 4.37627 10C4.37627 9.96452 4.3766 9.92911 4.37725 9.89379C4.3831 9.57811 4.26226 9.26824 4.01851 9.06758L3.18155 8.37856C2.82773 8.08729 2.73635 7.58291 2.9655 7.18602L4.04632 5.31399C4.27546 4.9171 4.75795 4.74405 5.18711 4.90483L6.20116 5.28472C6.49746 5.39573 6.8269 5.34487 7.09776 5.18132C7.15813 5.14487 7.21923 5.10952 7.28105 5.0753C7.55752 4.92226 7.76583 4.66262 7.81778 4.35092L7.9957 3.28338Z" stroke-width="1.5" stroke="currentColor" stroke-linecap="round" stroke-linejoin="round"/>
<path d="M12.5011 9.99993C12.5011 11.3806 11.3818 12.4999 10.0011 12.4999C8.62036 12.4999 7.50107 11.3806 7.50107 9.99993C7.50107 8.61922 8.62036 7.49993 10.0011 7.49993C11.3818 7.49993 12.5011 8.61922 12.5011 9.99993Z" stroke="#072E51" stroke-width="2" stroke-linecap="round" stroke-linejoin="round"/>
</svg>
