<svg width="40" height="40" viewBox="0 0 40 40" fill="none" xmlns="http://www.w3.org/2000/svg">
<rect width="40" height="40" rx="20" fill="#F2F4F6"/>
<path d="M18.6922 10.2811C18.9248 10.1198 19.2277 10.1198 19.4603 10.2811L27.768 16.0411C28.0861 16.2617 28.1721 16.7087 27.96 17.0395C27.7479 17.3704 27.318 17.4598 26.9999 17.2392L19.0762 11.7455L11.1526 17.2392C10.8344 17.4598 10.4046 17.3704 10.1925 17.0395C9.98043 16.7087 10.0664 16.2617 10.3845 16.0411L18.6922 10.2811Z" fill="#072E51"/>
<path fill-rule="evenodd" clip-rule="evenodd" d="M26.6916 17.9194V27.4402H27.3839C27.7662 27.4402 28.0762 27.7625 28.0762 28.1602C28.0762 28.5578 27.7662 28.8802 27.3839 28.8802H10.7685C10.3861 28.8802 10.0762 28.5578 10.0762 28.1602C10.0762 27.7625 10.3861 27.4402 10.7685 27.4402H11.4608V17.9194C11.4608 17.5648 11.709 17.263 12.0458 17.2081C14.3369 16.8342 16.685 16.6402 19.0762 16.6402C21.4674 16.6402 23.8155 16.8342 26.1066 17.2081C26.4434 17.263 26.6916 17.5648 26.6916 17.9194ZM19.7685 20.2402C19.7685 19.8425 19.4585 19.5202 19.0762 19.5202C18.6938 19.5202 18.3839 19.8425 18.3839 20.2402V26.7202C18.3839 27.1178 18.6938 27.4402 19.0762 27.4402C19.4585 27.4402 19.7685 27.1178 19.7685 26.7202V20.2402ZM22.5377 19.5202C22.9201 19.5202 23.23 19.8425 23.23 20.2402V26.7202C23.23 27.1178 22.9201 27.4402 22.5377 27.4402C22.1554 27.4402 21.8454 27.1178 21.8454 26.7202V20.2402C21.8454 19.8425 22.1554 19.5202 22.5377 19.5202ZM16.3069 20.2402C16.3069 19.8425 15.997 19.5202 15.6146 19.5202C15.2323 19.5202 14.9223 19.8425 14.9223 20.2402V26.7202C14.9223 27.1178 15.2323 27.4402 15.6146 27.4402C15.997 27.4402 16.3069 27.1178 16.3069 26.7202V20.2402Z" fill="#072E51"/>
<path d="M19.0762 15.5602C19.6497 15.5602 20.1146 15.0766 20.1146 14.4802C20.1146 13.8837 19.6497 13.4002 19.0762 13.4002C18.5026 13.4002 18.0377 13.8837 18.0377 14.4802C18.0377 15.0766 18.5026 15.5602 19.0762 15.5602Z" fill="#072E51"/>
<rect x="20.9238" y="20.48" width="11.0769" height="11.52" rx="5.53846" fill="#F2F4F6"/>
<path fill-rule="evenodd" clip-rule="evenodd" d="M29.5484 29.6467C30.4193 28.7932 30.9629 27.5827 30.9629 26.2401C30.9629 23.6554 28.9482 21.5601 26.4629 21.5601C23.9776 21.5601 21.9629 23.6554 21.9629 26.2401C21.9629 27.5827 22.5065 28.7932 23.3773 29.6467C24.1829 30.4362 25.2686 30.9201 26.4629 30.9201C27.6572 30.9201 28.7428 30.4362 29.5484 29.6467ZM23.7606 29.03C24.395 28.207 25.3698 27.6801 26.4629 27.6801C27.556 27.6801 28.5308 28.207 29.1651 29.03C28.4753 29.7526 27.5194 30.2001 26.4629 30.2001C25.4064 30.2001 24.4505 29.7526 23.7606 29.03ZM28.1937 24.8001C28.1937 25.7942 27.4188 26.6001 26.4629 26.6001C25.507 26.6001 24.7321 25.7942 24.7321 24.8001C24.7321 23.8059 25.507 23.0001 26.4629 23.0001C27.4188 23.0001 28.1937 23.8059 28.1937 24.8001Z" fill="#072E51"/>
</svg>
