<svg viewBox="0 0 24 24" fill="none" xmlns="http://www.w3.org/2000/svg">
<path fill-rule="evenodd" clip-rule="evenodd" d="M12.5157 2.17029C12.2265 1.89636 11.7735 1.89636 11.4843 2.17029C9.46752 4.08026 6.74624 5.25059 3.75 5.25059C3.70233 5.25059 3.65473 5.2503 3.60721 5.24971C3.27984 5.24564 2.98767 5.45439 2.88541 5.7654C2.47287 7.02016 2.25 8.36012 2.25 9.75064C2.25 15.6927 6.31406 20.6836 11.8131 22.0989C11.9357 22.1305 12.0643 22.1305 12.1869 22.0989C17.6859 20.6836 21.75 15.6927 21.75 9.75064C21.75 8.36012 21.5271 7.02016 21.1146 5.7654C21.0123 5.45439 20.7202 5.24564 20.3928 5.24971C20.3453 5.2503 20.2977 5.25059 20.25 5.25059C17.2538 5.25059 14.5325 4.08026 12.5157 2.17029ZM15.6103 10.1864C15.8511 9.84936 15.773 9.38095 15.4359 9.14019C15.0989 8.89943 14.6305 8.9775 14.3897 9.31456L11.1543 13.8441L9.53033 12.2202C9.23744 11.9273 8.76256 11.9273 8.46967 12.2202C8.17678 12.5131 8.17678 12.9879 8.46967 13.2808L10.7197 15.5308C10.8756 15.6867 11.0921 15.7661 11.3119 15.7479C11.5316 15.7297 11.7322 15.6158 11.8603 15.4364L15.6103 10.1864Z" fill="#0F172A"/>
</svg>
