<svg width="21" height="21" viewBox="0 0 21 21" fill="none" xmlns="http://www.w3.org/2000/svg">
    <path d="M7.5 10.6248L9.375 12.4998L12.5 8.12483M10 2.26172C8.20792 3.9589 5.78802 4.99984 3.125 4.99984C3.08269 4.99984 3.04043 4.99958 2.99825 4.99906C2.67491 5.98248 2.5 7.03325 2.5 8.12488C2.5 12.7845 5.68693 16.6997 10 17.8098C14.3131 16.6997 17.5 12.7845 17.5 8.12488C17.5 7.03325 17.3251 5.98248 17.0018 4.99906C16.9596 4.99958 16.9173 4.99984 16.875 4.99984C14.212 4.99984 11.7921 3.9589 10 2.26172Z" stroke="#072E51" stroke-width="1.25" stroke-linecap="round" stroke-linejoin="round"/>
    <rect x="10.834" y="10.833" width="10" height="10" rx="5" fill="white"/>
    <path fill-rule="evenodd" clip-rule="evenodd" d="M15.834 19.833C18.0431 19.833 19.834 18.0421 19.834 15.833C19.834 13.6239 18.0431 11.833 15.834 11.833C13.6248 11.833 11.834 13.6239 11.834 15.833C11.834 18.0421 13.6248 19.833 15.834 19.833ZM16.209 14.208C16.209 14.0009 16.0411 13.833 15.834 13.833C15.6269 13.833 15.459 14.0009 15.459 14.208V15.458H14.209C14.0019 15.458 13.834 15.6259 13.834 15.833C13.834 16.0401 14.0019 16.208 14.209 16.208H15.459V17.458C15.459 17.6651 15.6269 17.833 15.834 17.833C16.0411 17.833 16.209 17.6651 16.209 17.458V16.208H17.459C17.6661 16.208 17.834 16.0401 17.834 15.833C17.834 15.6259 17.6661 15.458 17.459 15.458H16.209V14.208Z" fill="#072E51"/>
</svg>
