<svg width="18" height="19" viewBox="0 0 18 19" fill="none" xmlns="http://www.w3.org/2000/svg">
<path d="M0.75 2.13184C0.75 1.51052 1.25368 1.00684 1.875 1.00684H6.375C6.99632 1.00684 7.5 1.51052 7.5 2.13184V6.63184C7.5 7.25316 6.99632 7.75684 6.375 7.75684H1.875C1.25368 7.75684 0.75 7.25316 0.75 6.63184V2.13184Z" stroke="#384250" stroke-width="1.5" stroke-linecap="round" stroke-linejoin="round"/>
<path d="M0.75 11.8818C0.75 11.2605 1.25368 10.7568 1.875 10.7568H6.375C6.99632 10.7568 7.5 11.2605 7.5 11.8818V16.3818C7.5 17.0032 6.99632 17.5068 6.375 17.5068H1.875C1.25368 17.5068 0.75 17.0032 0.75 16.3818V11.8818Z" stroke="#384250" stroke-width="1.5" stroke-linecap="round" stroke-linejoin="round"/>
<path d="M10.5 2.13184C10.5 1.51052 11.0037 1.00684 11.625 1.00684H16.125C16.7463 1.00684 17.25 1.51052 17.25 2.13184V6.63184C17.25 7.25316 16.7463 7.75684 16.125 7.75684H11.625C11.0037 7.75684 10.5 7.25316 10.5 6.63184V2.13184Z" stroke="#384250" stroke-width="1.5" stroke-linecap="round" stroke-linejoin="round"/>
<path d="M3.75 4.00684H4.5V4.75684H3.75V4.00684Z" stroke="#384250" stroke-width="1.5" stroke-linecap="round" stroke-linejoin="round"/>
<path d="M3.75 13.7568H4.5V14.5068H3.75V13.7568Z" stroke="#384250" stroke-width="1.5" stroke-linecap="round" stroke-linejoin="round"/>
<path d="M13.5 4.00684H14.25V4.75684H13.5V4.00684Z" stroke="#384250" stroke-width="1.5" stroke-linecap="round" stroke-linejoin="round"/>
<path d="M10.5 10.7568H11.25V11.5068H10.5V10.7568Z" stroke="#384250" stroke-width="1.5" stroke-linecap="round" stroke-linejoin="round"/>
<path d="M10.5 16.7568H11.25V17.5068H10.5V16.7568Z" stroke="#384250" stroke-width="1.5" stroke-linecap="round" stroke-linejoin="round"/>
<path d="M16.5 10.7568H17.25V11.5068H16.5V10.7568Z" stroke="#384250" stroke-width="1.5" stroke-linecap="round" stroke-linejoin="round"/>
<path d="M16.5 16.7568H17.25V17.5068H16.5V16.7568Z" stroke="#384250" stroke-width="1.5" stroke-linecap="round" stroke-linejoin="round"/>
<path d="M13.5 13.7568H14.25V14.5068H13.5V13.7568Z" stroke="#384250" stroke-width="1.5" stroke-linecap="round" stroke-linejoin="round"/>
</svg>
