<svg width="18" height="18" viewBox="0 0 18 18" fill="none" xmlns="http://www.w3.org/2000/svg">
<path d="M10.5812 6L10.3504 12M7.15812 12L6.92735 6M13.5727 3.86038C13.8007 3.89481 14.0279 3.93165 14.2543 3.97086M13.5727 3.86038L12.8608 13.115C12.8007 13.8965 12.149 14.5 11.3652 14.5H6.14332C5.35951 14.5 4.70785 13.8965 4.64774 13.115L3.93584 3.86038M13.5727 3.86038C12.8084 3.74496 12.0353 3.65657 11.2543 3.59622M3.25427 3.97086C3.48066 3.93165 3.70785 3.89481 3.93584 3.86038M3.93584 3.86038C4.70012 3.74496 5.47327 3.65657 6.25427 3.59622M11.2543 3.59622V2.98546C11.2543 2.19922 10.6472 1.54282 9.86133 1.51768C9.49375 1.50592 9.1247 1.5 8.75427 1.5C8.38384 1.5 8.01479 1.50592 7.64722 1.51768C6.86138 1.54282 6.25427 2.19922 6.25427 2.98546V3.59622M11.2543 3.59622C10.4293 3.53247 9.59558 3.5 8.75427 3.5C7.91296 3.5 7.07923 3.53247 6.25427 3.59622" stroke="#072E51" stroke-width="1.5" stroke-linecap="round" stroke-linejoin="round"/>
</svg>
