<svg width="25" height="25" viewBox="0 0 25 25" fill="none" xmlns="http://www.w3.org/2000/svg">
<path d="M17.9992 18.7191C18.2467 18.7396 18.4971 18.75 18.7498 18.75C19.7982 18.75 20.8046 18.5708 21.7403 18.2413C21.7466 18.1617 21.7498 18.0812 21.7498 18C21.7498 16.3431 20.4067 15 18.7498 15C18.1222 15 17.5396 15.1927 17.058 15.5222M17.9992 18.7191C17.9993 18.7294 17.9993 18.7397 17.9993 18.75C17.9993 18.975 17.9869 19.1971 17.9628 19.4156C16.206 20.4237 14.1699 21 11.9993 21C9.8286 21 7.79254 20.4237 6.03577 19.4156C6.01165 19.1971 5.99927 18.975 5.99927 18.75C5.99927 18.7397 5.99929 18.7295 5.99934 18.7192M17.9992 18.7191C17.9933 17.5426 17.6487 16.4461 17.058 15.5222M17.058 15.5222C15.9921 13.8552 14.1247 12.75 11.9993 12.75C9.87406 12.75 8.00692 13.8549 6.94096 15.5216M6.94096 15.5216C6.4595 15.1925 5.87723 15 5.25 15C3.59315 15 2.25 16.3431 2.25 18C2.25 18.0812 2.25323 18.1617 2.25956 18.2413C3.19519 18.5708 4.20167 18.75 5.25 18.75C5.50234 18.75 5.75226 18.7396 5.99934 18.7192M6.94096 15.5216C6.34997 16.4457 6.00525 17.5424 5.99934 18.7192M14.9993 6.75C14.9993 8.40685 13.6561 9.75 11.9993 9.75C10.3424 9.75 8.99927 8.40685 8.99927 6.75C8.99927 5.09315 10.3424 3.75 11.9993 3.75C13.6561 3.75 14.9993 5.09315 14.9993 6.75ZM20.9993 9.75C20.9993 10.9926 19.9919 12 18.7493 12C17.5066 12 16.4993 10.9926 16.4993 9.75C16.4993 8.50736 17.5066 7.5 18.7493 7.5C19.9919 7.5 20.9993 8.50736 20.9993 9.75ZM7.49927 9.75C7.49927 10.9926 6.49191 12 5.24927 12C4.00663 12 2.99927 10.9926 2.99927 9.75C2.99927 8.50736 4.00663 7.5 5.24927 7.5C6.49191 7.5 7.49927 8.50736 7.49927 9.75Z" stroke="#072E51" stroke-width="1.5" stroke-linecap="round" stroke-linejoin="round"/>
<rect x="13" y="13" width="12" height="12" rx="6" fill="white"/>
<path fill-rule="evenodd" clip-rule="evenodd" d="M18.9992 23.8C21.6502 23.8 23.7992 21.6509 23.7992 19C23.7992 16.349 21.6502 14.2 18.9992 14.2C16.3483 14.2 14.1992 16.349 14.1992 19C14.1992 21.6509 16.3483 23.8 18.9992 23.8ZM19.4492 17.05C19.4492 16.8014 19.2477 16.6 18.9992 16.6C18.7507 16.6 18.5492 16.8014 18.5492 17.05V18.55H17.0492C16.8007 18.55 16.5992 18.7514 16.5992 19C16.5992 19.2485 16.8007 19.45 17.0492 19.45H18.5492V20.95C18.5492 21.1985 18.7507 21.4 18.9992 21.4C19.2477 21.4 19.4492 21.1985 19.4492 20.95V19.45H20.9492C21.1977 19.45 21.3992 19.2485 21.3992 19C21.3992 18.7514 21.1977 18.55 20.9492 18.55H19.4492V17.05Z" fill="#072E51"/>
</svg>
