<svg width="40" height="40" viewBox="0 0 40 40" fill="none" xmlns="http://www.w3.org/2000/svg">
<rect width="40" height="40" rx="20" fill="#F3F4F6"/>
<path d="M24.9846 25.604C23.8434 24.0979 22.0353 23.125 20 23.125C17.9647 23.125 16.1566 24.0979 15.0154 25.604M24.9846 25.604C26.5279 24.2303 27.5 22.2287 27.5 20C27.5 15.8579 24.1421 12.5 20 12.5C15.8579 12.5 12.5 15.8579 12.5 20C12.5 22.2287 13.4721 24.2303 15.0154 25.604M24.9846 25.604C23.6596 26.7834 21.9135 27.5 20 27.5C18.0865 27.5 16.3404 26.7834 15.0154 25.604M22.5 18.125C22.5 19.5057 21.3807 20.625 20 20.625C18.6193 20.625 17.5 19.5057 17.5 18.125C17.5 16.7443 18.6193 15.625 20 15.625C21.3807 15.625 22.5 16.7443 22.5 18.125Z" stroke="#072E51" stroke-width="1.25" stroke-linecap="round" stroke-linejoin="round"/>
<rect x="20.834" y="20.8335" width="10" height="10" rx="5" fill="white"/>
<path fill-rule="evenodd" clip-rule="evenodd" d="M25.834 29.8335C28.0431 29.8335 29.834 28.0426 29.834 25.8335C29.834 23.6244 28.0431 21.8335 25.834 21.8335C23.6248 21.8335 21.834 23.6244 21.834 25.8335C21.834 28.0426 23.6248 29.8335 25.834 29.8335ZM26.209 24.2085C26.209 24.0014 26.0411 23.8335 25.834 23.8335C25.6269 23.8335 25.459 24.0014 25.459 24.2085V25.4585H24.209C24.0019 25.4585 23.834 25.6264 23.834 25.8335C23.834 26.0406 24.0019 26.2085 24.209 26.2085H25.459V27.4585C25.459 27.6656 25.6269 27.8335 25.834 27.8335C26.0411 27.8335 26.209 27.6656 26.209 27.4585V26.2085H27.459C27.6661 26.2085 27.834 26.0406 27.834 25.8335C27.834 25.6264 27.6661 25.4585 27.459 25.4585H26.209V24.2085Z" fill="#072E51"/>
</svg>
