<svg viewBox="0 0 103 26" fill="none" xmlns="http://www.w3.org/2000/svg">
<g clip-path="url(#clip0_4294_4045)">
<path d="M96.7123 3.39175L90.1309 9.48626C89.4022 10.161 89.402 11.2552 90.1304 11.9302C90.8588 12.6052 92.04 12.6054 92.7687 11.9306L99.3501 5.8361C100.079 5.16135 100.079 4.06717 99.3505 3.39218C98.6221 2.71719 97.441 2.717 96.7123 3.39175Z" fill="#072E51"/>
<path d="M81.6974 3.38092C80.9687 2.70617 79.7875 2.70636 79.0591 3.38135C78.3307 4.05633 78.3309 5.15051 79.0596 5.82526L85.641 11.9198C86.3697 12.5945 87.5508 12.5943 88.2793 11.9193C89.0077 11.2444 89.0075 10.1502 88.2788 9.47542L81.6974 3.38092Z" fill="#072E51"/>
<path d="M101.133 3.45846C102.164 3.45846 103 2.68426 103 1.72923C103 0.774204 102.164 0 101.133 0C100.102 0 99.2666 0.774204 99.2666 1.72923C99.2666 2.68426 100.102 3.45846 101.133 3.45846Z" fill="#072E51"/>
<path d="M0 13.4609H4.22973L7.27012 20.9058L10.3105 13.4609H14.4086L9.0149 25.8038H5.39252L0 13.4609Z" fill="#072E51"/>
<path d="M17.2339 25.1924C16.1846 24.6533 15.3744 23.8983 14.8021 22.9274C14.2298 21.9565 13.9424 20.8503 13.9424 19.6088C13.9424 18.3672 14.2334 17.2901 14.8154 16.327C15.3974 15.364 16.2027 14.6123 17.2339 14.0743C18.2651 13.5352 19.4243 13.2656 20.7102 13.2656C22.1724 13.2656 23.4463 13.5844 24.5306 14.2208C25.6149 14.8573 26.3985 15.7308 26.8839 16.8415C27.3681 17.9522 27.5058 19.1602 27.2933 20.4655H16.216V17.8941H23.2483C23.2302 17.5182 23.1167 17.1838 22.9042 16.8896C22.6928 16.5955 22.397 16.3718 22.0191 16.2163C21.6399 16.0608 21.2041 15.9836 20.7102 15.9836C20.0582 15.9836 19.5076 16.11 19.0584 16.3628C18.6092 16.6156 18.2735 17.0037 18.0538 17.5261C17.8328 18.0484 17.7229 18.7184 17.7229 19.5338C17.7229 20.3011 17.8546 20.9465 18.119 21.4689C18.3834 21.9912 18.7577 22.3793 19.2431 22.6321C19.7273 22.8849 20.2779 23.0113 20.8949 23.0113C21.512 23.0113 22.0577 22.8927 22.4815 22.6567C22.9042 22.4207 23.1867 22.0975 23.328 21.6892H27.2148C27.0385 22.5549 26.6726 23.3144 26.1172 23.9665C25.5618 24.6197 24.8433 25.1219 23.9631 25.4732C23.0817 25.8244 22.0686 26 20.9227 26C19.5124 26 18.2832 25.7304 17.2351 25.1913L17.2339 25.1924Z" fill="#072E51"/>
<path d="M28.8008 13.4614H32.713V14.8573C33.1005 14.3841 33.6342 14.0005 34.3128 13.7063C34.9914 13.4122 35.7183 13.2656 36.4935 13.2656C37.0755 13.2656 37.5597 13.3394 37.9473 13.486V16.9142C37.6478 16.8158 37.352 16.7431 37.0622 16.6939C36.7712 16.6447 36.4669 16.6201 36.1506 16.6201C35.5167 16.6201 34.9431 16.7789 34.4324 17.0977C33.9204 17.4165 33.5075 17.922 33.1899 18.6155C32.8723 19.3101 32.7142 20.187 32.7142 21.2485V25.8031H28.802V13.4602L28.8008 13.4614Z" fill="#072E51"/>
<path d="M41.2539 13.2656C42.3346 13.2656 43.21 14.0766 43.21 15.0776V24.188C43.21 25.189 42.3346 26 41.2539 26C40.1733 26 39.2979 25.189 39.2979 24.188V15.0776C39.2979 14.0766 40.1733 13.2656 41.2539 13.2656Z" fill="#072E51"/>
<path d="M47.6966 25.217C46.7186 24.6947 45.9555 23.9553 45.4097 23.0012C44.8627 22.046 44.5898 20.9241 44.5898 19.6334C44.5898 18.3426 44.8627 17.2207 45.4097 16.2655C45.9555 15.3103 46.7186 14.5721 47.6966 14.0497C48.6747 13.5274 49.8073 13.2656 51.0932 13.2656C51.8503 13.2656 52.5736 13.4088 53.2606 13.694C53.9477 13.9804 54.4765 14.3595 54.8472 14.8327V13.4614H58.786V25.8042H54.8472V24.4329C54.4765 24.8904 53.9525 25.2651 53.2739 25.5593C52.5953 25.8534 51.8684 26 51.0932 26C49.8061 26 48.6747 25.7394 47.6966 25.2159V25.217ZM53.3536 22.5225C53.8378 22.2451 54.2085 21.8536 54.4645 21.3469C54.7192 20.8414 54.8472 20.2698 54.8472 19.6322C54.8472 18.9947 54.7192 18.3996 54.4645 17.8929C54.2085 17.3874 53.839 16.9992 53.3536 16.7297C52.8682 16.4601 52.3176 16.3259 51.7018 16.3259C51.086 16.3259 50.539 16.4601 50.0633 16.7297C49.5875 16.9992 49.2132 17.3874 48.9391 17.8929C48.6662 18.3996 48.5298 18.979 48.5298 19.6322C48.5298 20.2855 48.6662 20.8604 48.9391 21.3592C49.212 21.857 49.5863 22.2451 50.0633 22.5225C50.539 22.7999 51.0848 22.9386 51.7018 22.9386C52.3188 22.9386 52.8694 22.7999 53.3536 22.5225Z" fill="#072E51"/>
<path d="M79.2711 13.8287C80.0197 14.2045 80.5969 14.7391 81.0026 15.4326C81.4083 16.1272 81.6112 16.9471 81.6112 17.8934V25.8035H77.699V18.6775C77.699 18.2043 77.6157 17.8005 77.4478 17.465C77.28 17.1305 77.047 16.8733 76.7475 16.6932C76.4481 16.5142 76.087 16.4236 75.6632 16.4236C75.1162 16.4236 74.6538 16.5623 74.2758 16.8397C73.8967 17.1171 73.6057 17.5052 73.4028 18.003C73.2 18.5007 73.0986 19.0443 73.0986 19.6315V25.8024H69.1864V18.6763C69.1864 18.2032 69.1031 17.7994 68.9352 17.4639C68.7674 17.1294 68.5392 16.8722 68.2482 16.6921C67.9572 16.5131 67.5913 16.4225 67.1506 16.4225C66.6036 16.4225 66.1363 16.5612 65.75 16.8386C65.3624 17.116 65.0665 17.5041 64.8649 18.0019C64.662 18.4996 64.5606 19.0432 64.5606 19.6304V25.8013H60.6484V13.4584H64.5606V14.9528C64.9482 14.4472 65.5073 14.0389 66.239 13.728C66.9707 13.4182 67.7676 13.2627 68.631 13.2627C69.213 13.2627 69.7587 13.3365 70.2695 13.483C70.7802 13.6296 71.221 13.8466 71.5916 14.1318C71.9623 14.4181 72.2256 14.7313 72.3849 15.0747C72.9138 14.5356 73.5707 14.0993 74.3543 13.7649C75.138 13.4305 75.9276 13.2627 76.7209 13.2627C77.6724 13.2627 78.5225 13.4506 79.2723 13.8264L79.2711 13.8287Z" fill="#072E51"/>
<path d="M41.2539 12.3974C42.3343 12.3974 43.21 11.5862 43.21 10.5854C43.21 9.5847 42.3343 8.77344 41.2539 8.77344C40.1736 8.77344 39.2979 9.5847 39.2979 10.5854C39.2979 11.5862 40.1736 12.3974 41.2539 12.3974Z" fill="#072E51"/>
</g>
<defs>
<clipPath id="clip0_4294_4045">
<rect width="103" height="26" fill="white"/>
</clipPath>
</defs>
</svg>
