<svg width="40" height="40" viewBox="0 0 40 40" fill="none" xmlns="http://www.w3.org/2000/svg">
<rect width="40" height="40" rx="20" fill="#F2F4F6"/>
<path d="M16.25 15.5V14.1082C16.25 12.9732 17.095 12.0102 18.2261 11.9163C18.5994 11.8853 18.9739 11.8586 19.3495 11.8362M23.75 26H26C27.2426 26 28.25 24.9926 28.25 23.75V14.1082C28.25 12.9732 27.405 12.0102 26.2739 11.9163C25.9006 11.8853 25.5261 11.8586 25.1505 11.8362M23.75 26.75V24.875C23.75 23.011 22.239 21.5 20.375 21.5H18.875C18.2537 21.5 17.75 20.9963 17.75 20.375V18.875C17.75 17.011 16.239 15.5 14.375 15.5H13.25M25.1505 11.8362C24.8672 10.9176 24.0116 10.25 23 10.25H21.5C20.4884 10.25 19.6328 10.9176 19.3495 11.8362M25.1505 11.8362C25.2152 12.046 25.25 12.2689 25.25 12.5V13.25H19.25V12.5C19.25 12.2689 19.2848 12.046 19.3495 11.8362M14.75 15.5H12.875C12.2537 15.5 11.75 16.0037 11.75 16.625V28.625C11.75 29.2463 12.2537 29.75 12.875 29.75H22.625C23.2463 29.75 23.75 29.2463 23.75 28.625V24.5C23.75 19.5294 19.7206 15.5 14.75 15.5Z" stroke="#0F172A" stroke-width="1.5" stroke-linecap="round" stroke-linejoin="round"/>
</svg>
