<svg  viewBox="0 0 116 116" fill="none" xmlns="http://www.w3.org/2000/svg">
    <path d="M56.2419 69.31L79.8999 45.6545C80.0545 45.4986 80.2177 45.3512 80.3868 45.2122C80.5572 45.0733 80.7336 44.9428 80.9161 44.8207C81.0985 44.6987 81.287 44.5851 81.4804 44.4824C81.6737 44.3785 81.8719 44.2842 82.0749 44.2008C82.2779 44.1163 82.4845 44.0425 82.6947 43.9785C82.905 43.9157 83.1177 43.8613 83.3339 43.819C83.549 43.7767 83.7653 43.7441 83.984 43.7223C84.2027 43.7006 84.4227 43.6909 84.6414 43.6909C84.8613 43.6909 85.08 43.7018 85.2987 43.7223C85.5174 43.7441 85.7349 43.7767 85.95 43.819C86.1651 43.8625 86.3777 43.9157 86.588 43.9797C86.7982 44.0438 87.0049 44.1175 87.2079 44.2008C87.4109 44.2854 87.609 44.3797 87.8024 44.4824C87.9969 44.5863 88.1842 44.6999 88.3667 44.8219C88.5503 44.944 88.7255 45.0745 88.8959 45.2134C89.0651 45.3536 89.2282 45.501 89.3829 45.6557C89.5387 45.8115 89.6862 45.9735 89.8251 46.1438C89.9641 46.313 90.0946 46.4894 90.2166 46.6719C90.3387 46.8555 90.4522 47.0428 90.5549 47.2374C90.6589 47.4307 90.7519 47.6289 90.8365 47.8319C90.9211 48.0349 90.9948 48.2415 91.0576 48.4518C91.1217 48.662 91.1748 48.8747 91.2183 49.091C91.2606 49.306 91.2932 49.5235 91.3138 49.7423C91.3355 49.961 91.3464 50.1797 91.3464 50.3996C91.3464 50.6195 91.3355 50.8382 91.3138 51.0569C91.292 51.2756 91.2606 51.4919 91.2171 51.7082C91.1748 51.9233 91.1217 52.136 91.0576 52.3462C90.9936 52.5565 90.9199 52.7631 90.8353 52.9661C90.7519 53.1691 90.6577 53.3673 90.5537 53.5606C90.451 53.7551 90.3374 53.9436 90.2154 54.1261C90.0934 54.3085 89.9629 54.485 89.8239 54.6541C89.6837 54.8245 89.5363 54.9864 89.3817 55.1423L65.7237 78.7978C65.5678 78.9537 65.4059 79.1011 65.2355 79.2401C65.0664 79.379 64.8899 79.5095 64.7075 79.6316C64.525 79.7536 64.3365 79.8672 64.142 79.9699C63.9486 80.0738 63.7505 80.1681 63.5475 80.2515C63.3445 80.336 63.1379 80.4098 62.9276 80.4738C62.7174 80.5366 62.5047 80.591 62.2896 80.6333C62.0745 80.6756 61.857 80.7082 61.6383 80.73C61.4196 80.7517 61.2009 80.7614 60.981 80.7614C60.7611 80.7614 60.5424 80.7505 60.3236 80.73C60.1049 80.7082 59.8886 80.6756 59.6724 80.6333C59.4573 80.5898 59.2446 80.5366 59.0344 80.4726C58.8241 80.4086 58.6175 80.3348 58.4145 80.2515C58.2127 80.1669 58.0133 80.0726 57.82 79.9687C57.6266 79.866 57.4381 79.7524 57.2557 79.6304C57.0732 79.5083 56.8968 79.3778 56.7276 79.2389C56.5573 79.0987 56.3954 78.9513 56.2395 78.7966C56.0848 78.6408 55.9374 78.4788 55.7984 78.3085C55.6583 78.1393 55.5278 77.9629 55.4057 77.7804C55.2837 77.5968 55.1713 77.4095 55.0674 77.2149C54.9647 77.0216 54.8704 76.8234 54.7859 76.6204C54.7025 76.4174 54.6288 76.2108 54.5647 76.0005C54.5007 75.7903 54.4475 75.5776 54.4052 75.3613C54.3617 75.1463 54.3303 74.9288 54.3086 74.71C54.2868 74.4913 54.2759 74.2726 54.2759 74.0527C54.2759 73.8328 54.2868 73.6141 54.3086 73.3954C54.3303 73.1767 54.3629 72.9604 54.4052 72.7441C54.4487 72.529 54.5019 72.3163 54.5659 72.1061C54.6288 71.8958 54.7037 71.6892 54.7871 71.4862C54.8716 71.2832 54.9647 71.085 55.0686 70.8917C55.1725 70.6972 55.2849 70.5087 55.4069 70.3262C55.529 70.1438 55.6595 69.9673 55.7996 69.7982C55.9386 69.6278 56.086 69.4659 56.2419 69.31Z" fill="#072E51"/>
    <path d="M16.4406 45.6145C16.5965 45.4599 16.7584 45.3124 16.9288 45.1723C17.0979 45.0333 17.2743 44.9028 17.4568 44.7808C17.6393 44.6587 17.8278 44.5452 18.0211 44.4424C18.2144 44.3385 18.4126 44.2443 18.6156 44.1609C18.8186 44.0763 19.0252 44.0026 19.2355 43.9386C19.4457 43.8745 19.6584 43.8214 19.8735 43.7791C20.0898 43.7356 20.3061 43.7029 20.5248 43.6824C20.7435 43.6607 20.9622 43.6498 21.1821 43.6498C21.402 43.6498 21.6207 43.6607 21.8394 43.6812C22.0581 43.7029 22.2756 43.7356 22.4907 43.7779C22.7058 43.8214 22.9185 43.8745 23.1287 43.9374C23.339 44.0014 23.5456 44.0751 23.7486 44.1597C23.9516 44.2431 24.1498 44.3373 24.3431 44.4412C24.5376 44.5439 24.7249 44.6575 24.9086 44.7796C25.0911 44.9016 25.2675 45.0321 25.4366 45.1711C25.607 45.31 25.7689 45.4574 25.9248 45.6133L49.5828 69.2689C49.7374 69.4247 49.8848 69.5867 50.025 69.757C50.164 69.9262 50.2945 70.1026 50.4165 70.2851C50.5386 70.4687 50.6509 70.656 50.7548 70.8506C50.8588 71.0439 50.953 71.2421 51.0364 71.4451C51.121 71.6481 51.1947 71.8547 51.2587 72.0649C51.3216 72.2752 51.3759 72.4879 51.4182 72.7029C51.4617 72.9192 51.4931 73.1355 51.5149 73.3542C51.5366 73.5729 51.5475 73.7929 51.5475 74.0116C51.5475 74.2315 51.5366 74.4514 51.5149 74.6689C51.4944 74.8876 51.4617 75.1051 51.4182 75.3202C51.3759 75.5365 51.3228 75.7492 51.2587 75.9594C51.1959 76.1697 51.121 76.3763 51.0376 76.5793C50.953 76.7823 50.86 76.9804 50.7561 77.1738C50.6521 77.3683 50.5398 77.5556 50.4177 77.7393C50.2957 77.9217 50.1652 78.0982 50.0262 78.2673C49.8873 78.4377 49.7398 78.5996 49.584 78.7555C49.4293 78.9114 49.2662 79.0588 49.097 79.1977C48.9266 79.3367 48.7502 79.4672 48.5678 79.5892C48.3853 79.7113 48.1968 79.8249 48.0035 79.9288C47.8101 80.0315 47.612 80.1257 47.409 80.2103C47.206 80.2937 46.9993 80.3674 46.7891 80.4314C46.5788 80.4955 46.3662 80.5487 46.1511 80.5922C45.936 80.6344 45.7185 80.6671 45.4998 80.6888C45.2811 80.7106 45.0624 80.7215 44.8425 80.7215C44.6226 80.7215 44.4038 80.7106 44.1851 80.6888C43.9664 80.6671 43.7501 80.6357 43.5338 80.5922C43.3188 80.5499 43.1061 80.4967 42.8958 80.4327C42.6856 80.3686 42.479 80.2949 42.276 80.2103C42.073 80.1269 41.8748 80.0327 41.6815 79.93C41.4881 79.8261 41.2996 79.7137 41.1172 79.5917C40.9347 79.4696 40.7583 79.3379 40.5879 79.1989C40.4188 79.06 40.2556 78.9126 40.101 78.7567L16.4418 55.1012C16.2871 54.9453 16.1397 54.7834 16.0008 54.613C15.8606 54.4438 15.7301 54.2674 15.6081 54.0849C15.486 53.9025 15.3736 53.714 15.2697 53.5207C15.1658 53.3261 15.0728 53.1279 14.9882 52.9249C14.9036 52.7219 14.8299 52.5153 14.7671 52.3051C14.703 52.0948 14.6498 51.8822 14.6063 51.6671C14.5641 51.452 14.5314 51.2345 14.5097 51.0158C14.4879 50.7971 14.4771 50.5784 14.4771 50.3584C14.4771 50.1385 14.4879 49.9198 14.5097 49.7011C14.5314 49.4824 14.5628 49.2649 14.6063 49.0498C14.6486 48.8347 14.7018 48.6209 14.7658 48.4106C14.8299 48.2004 14.9036 47.9937 14.987 47.7907C15.0716 47.5877 15.1646 47.3896 15.2685 47.1962C15.3724 47.0029 15.4848 46.8144 15.6068 46.6319C15.7289 46.4483 15.8594 46.2731 15.9983 46.1027C16.1385 45.9323 16.2859 45.7704 16.4406 45.6145Z" fill="#072E51"/>
    <mask id="mask0_861_224" style="mask-type:luminance" maskUnits="userSpaceOnUse" x="88" y="32" width="15" height="15">
    <path d="M88.7787 32.4884H102.699V46.0906H88.7787V32.4884Z" fill="white"/>
    </mask>
    <g mask="url(#mask0_861_224)">
    <path d="M102.5 39.2007C102.5 39.4206 102.49 39.6393 102.469 39.8592C102.447 40.0779 102.415 40.2942 102.372 40.5105C102.329 40.7256 102.276 40.9383 102.212 41.1497C102.148 41.36 102.074 41.5666 101.991 41.7696C101.906 41.9726 101.812 42.1708 101.709 42.3653C101.605 42.5587 101.492 42.7472 101.369 42.9296C101.247 43.1121 101.117 43.2885 100.978 43.4589C100.838 43.6292 100.69 43.7912 100.536 43.947C100.38 44.1029 100.218 44.2503 100.048 44.3893C99.8772 44.5282 99.7008 44.6599 99.5183 44.782C99.3359 44.904 99.1474 45.0164 98.954 45.1203C98.7595 45.2242 98.5613 45.3173 98.3583 45.4019C98.1553 45.4864 97.9487 45.5602 97.7385 45.6242C97.5282 45.687 97.3155 45.7414 97.0992 45.7837C96.8842 45.8272 96.6667 45.8586 96.448 45.8804C96.2292 45.9021 96.0105 45.913 95.7906 45.913C95.5707 45.913 95.352 45.9021 95.1333 45.8804C94.9146 45.8586 94.6971 45.8272 94.482 45.7837C94.2657 45.7414 94.053 45.687 93.8428 45.6242C93.6325 45.5602 93.4259 45.4864 93.2229 45.4019C93.0199 45.3173 92.8205 45.2242 92.6272 45.1203C92.4339 45.0164 92.2454 44.904 92.0629 44.782C91.8792 44.6599 91.704 44.5282 91.5337 44.3893C91.3633 44.2503 91.2014 44.1029 91.0455 43.947C90.8908 43.7912 90.7434 43.6292 90.6032 43.4589C90.4643 43.2885 90.3326 43.1121 90.2105 42.9296C90.0885 42.7472 89.9761 42.5587 89.8722 42.3653C89.7695 42.1708 89.6752 41.9726 89.5907 41.7696C89.5073 41.5666 89.4324 41.36 89.3695 41.1497C89.3055 40.9383 89.2523 40.7256 89.2088 40.5105C89.1665 40.2942 89.1339 40.0779 89.1122 39.8592C89.0904 39.6393 89.0807 39.4206 89.0807 39.2007C89.0807 38.9808 89.0916 38.7621 89.1122 38.5434C89.1339 38.3247 89.1665 38.1072 89.2088 37.8909C89.2523 37.6758 89.3055 37.4631 89.3695 37.2529C89.4324 37.0414 89.5073 36.8348 89.5907 36.6318C89.6752 36.4288 89.7695 36.2306 89.8722 36.0373C89.9761 35.8427 90.0885 35.6542 90.2105 35.4718C90.3326 35.2893 90.4643 35.1129 90.6032 34.9425C90.7422 34.7722 90.8908 34.6102 91.0455 34.4544C91.2014 34.2997 91.3633 34.1523 91.5337 34.0121C91.704 33.8732 91.8792 33.7414 92.0629 33.6194C92.2454 33.4974 92.4339 33.385 92.6272 33.2811C92.8205 33.1772 93.0199 33.0841 93.2229 32.9995C93.4259 32.9149 93.6325 32.8412 93.8428 32.7772C94.053 32.7144 94.2657 32.66 94.4808 32.6177C94.6971 32.5742 94.9146 32.5428 95.1333 32.521C95.352 32.4993 95.5707 32.4884 95.7906 32.4884C96.0105 32.4884 96.2292 32.4993 96.448 32.521C96.6667 32.5428 96.8842 32.5742 97.0992 32.6177C97.3155 32.66 97.5282 32.7144 97.7385 32.7772C97.9487 32.8412 98.1553 32.9149 98.3583 32.9995C98.5613 33.0841 98.7595 33.1772 98.954 33.2811C99.1474 33.385 99.3359 33.4974 99.5183 33.6194C99.7008 33.7414 99.8772 33.8732 100.048 34.0121C100.218 34.1523 100.38 34.2997 100.536 34.4544C100.69 34.6102 100.838 34.7722 100.978 34.9425C101.117 35.1129 101.247 35.2893 101.369 35.4718C101.492 35.6542 101.605 35.8427 101.709 36.0373C101.812 36.2306 101.906 36.4288 101.991 36.6318C102.074 36.8348 102.148 37.0414 102.212 37.2529C102.276 37.4631 102.329 37.6758 102.372 37.8909C102.415 38.1072 102.447 38.3247 102.469 38.5434C102.49 38.7621 102.5 38.9808 102.5 39.2007Z" fill="#072E51"/>
    </g>
    </svg>
    