<svg xmlns="http://www.w3.org/2000/svg" id="Layer_1" data-name="Layer 1" version="1.1" viewBox="166.2 305.9 854.7 348.3">  <defs>    <style>      .cls-1 {        fill: #072e51;        stroke-width: 0px;      }    </style>  </defs>  <g>    <g>      <rect class="cls-1" x="898.4" y="358.9" width="108" height="30.9" rx="15.5" ry="15.5" transform="translate(14.2 783) rotate(-45)"></rect>      <rect class="cls-1" x="845.3" y="320.4" width="30.9" height="108" rx="15.5" ry="15.5" transform="translate(-12.6 718.4) rotate(-45)"></rect>      <circle class="cls-1" cx="1005.4" cy="321.4" r="15.5"></circle>    </g>    <g>      <path class="cls-1" d="M167.8,426.3h35l25.2,66.6,25.2-66.6h33.9l-44.7,110.3h-30l-44.7-110.3Z"></path>      <path class="cls-1" d="M310.5,531.2c-8.7-4.8-15.4-11.6-20.1-20.3-4.7-8.7-7.1-18.6-7.1-29.7s2.4-20.7,7.2-29.3c4.8-8.6,11.5-15.3,20-20.1,8.5-4.8,18.1-7.2,28.8-7.2s22.7,2.8,31.6,8.5c9,5.7,15.5,13.5,19.5,23.4,4,9.9,5.1,20.7,3.4,32.4h-91.7v-23h58.2c-.1-3.4-1.1-6.3-2.8-9-1.8-2.6-4.2-4.6-7.3-6-3.1-1.4-6.8-2.1-10.8-2.1s-10,1.1-13.7,3.4c-3.7,2.3-6.5,5.7-8.3,10.4-1.8,4.7-2.7,10.7-2.7,18s1.1,12.6,3.3,17.3c2.2,4.7,5.3,8.1,9.3,10.4,4,2.3,8.6,3.4,13.7,3.4s9.6-1.1,13.1-3.2c3.5-2.1,5.8-5,7-8.6h32.2c-1.5,7.7-4.5,14.5-9.1,20.4-4.6,5.8-10.5,10.3-17.8,13.5-7.3,3.1-15.7,4.7-25.2,4.7s-21.9-2.4-30.5-7.2Z"></path>      <path class="cls-1" d="M406.3,426.3h32.4v12.5c3.2-4.2,7.6-7.7,13.2-10.3,5.6-2.6,11.6-3.9,18.1-3.9s8.8.7,12,2v30.7c-2.5-.9-4.9-1.5-7.3-2-2.4-.4-4.9-.7-7.6-.7-5.3,0-10,1.4-14.2,4.3-4.2,2.8-7.7,7.4-10.3,13.6-2.6,6.2-3.9,14.1-3.9,23.5v40.7h-32.4v-110.3Z"></path>      <path class="cls-1" d="M509.5,424.5h0c8.9,0,16.2,7.3,16.2,16.2v81.4c0,8.9-7.3,16.2-16.2,16.2h0c-8.9,0-16.2-7.3-16.2-16.2v-81.4c0-8.9,7.3-16.2,16.2-16.2Z"></path>      <path class="cls-1" d="M562.8,531.4c-8.1-4.7-14.4-11.3-18.9-19.8-4.5-8.5-6.8-18.6-6.8-30.1s2.3-21.6,6.8-30.1c4.5-8.5,10.8-15.1,18.9-19.8,8.1-4.7,17.5-7,28.1-7s12.3,1.3,18,3.8c5.7,2.6,10.1,5.9,13.1,10.2v-12.3h32.6v110.3h-32.6v-12.3c-3.1,4.1-7.4,7.4-13,10.1-5.6,2.6-11.6,3.9-18.1,3.9-10.7,0-20-2.3-28.1-7ZM609.7,507.3c4-2.5,7.1-6,9.2-10.5,2.1-4.5,3.2-9.6,3.2-15.3s-1.1-11-3.2-15.5c-2.1-4.5-5.2-8-9.2-10.4-4-2.4-8.6-3.6-13.7-3.6s-9.6,1.2-13.6,3.6-7,5.9-9.3,10.4c-2.3,4.5-3.4,9.7-3.4,15.5s1.1,11,3.4,15.4c2.3,4.5,5.4,7.9,9.3,10.4,3.9,2.5,8.5,3.7,13.6,3.7s9.7-1.2,13.7-3.7Z"></path>      <path class="cls-1" d="M824.3,429.6c6.2,3.4,11,8.1,14.3,14.3,3.4,6.2,5,13.5,5,22v70.7h-32.4v-63.7c0-4.2-.7-7.8-2.1-10.8-1.4-3-3.3-5.3-5.8-6.9-2.5-1.6-5.5-2.4-9-2.4s-8.4,1.2-11.5,3.7c-3.1,2.5-5.5,5.9-7.2,10.4-1.7,4.5-2.5,9.3-2.5,14.6v55.2h-32.4v-63.7c0-4.2-.7-7.8-2.1-10.8-1.4-3-3.3-5.3-5.7-6.9-2.4-1.6-5.4-2.4-9.1-2.4s-8.4,1.2-11.6,3.7c-3.2,2.5-5.7,5.9-7.3,10.4-1.7,4.5-2.5,9.3-2.5,14.6v55.2h-32.4v-110.3h32.4v13.4c3.2-4.5,7.8-8.2,13.9-10.9,6.1-2.8,12.7-4.2,19.8-4.2s9.3.7,13.6,2c4.2,1.3,7.9,3.2,10.9,5.8,3.1,2.6,5.3,5.4,6.6,8.4,4.4-4.8,9.8-8.7,16.3-11.7,6.5-3,13-4.5,19.6-4.5s14.9,1.7,21.1,5Z"></path>      <circle class="cls-1" cx="509.5" cy="400.6" r="16.2"></circle>    </g>  </g>  <g>    <path class="cls-1" d="M189.7,593.6l-23.5,59.9h9.2l5.8-14.7h27l5.7,14.7h9.6l-23.5-59.9h-10.3ZM184.2,631.1l10.5-26.6,10.5,26.6h-21Z"></path>    <path class="cls-1" d="M264.3,597.2c-4.5-2.4-9.6-3.6-15.2-3.6h-18.9v59.9h18.9c5.6,0,10.7-1.2,15.2-3.6,4.5-2.4,8.1-5.8,10.8-10.3,2.7-4.5,4-9.9,4-16.1s-1.3-11.6-4-16.1c-2.7-4.5-6.3-7.9-10.8-10.3ZM267.2,635.7c-1.9,3.4-4.6,5.9-7.8,7.6-3.3,1.7-7,2.6-11.2,2.6h-9.1v-44.5h9.1c4.2,0,7.9.9,11.2,2.6,3.3,1.7,5.9,4.3,7.8,7.6,1.9,3.4,2.9,7.4,2.9,12.1s-1,8.7-2.9,12.1Z"></path>    <path class="cls-1" d="M325.5,630c-1.8,4.3-3.3,8.2-4.5,11.9-1.1-3.7-2.6-7.6-4.3-11.9l-15.3-36.4h-12.7v59.9h8.9v-35.4c0-4.7,0-8.9-.2-12.8,1.3,3.6,2.9,7.6,4.6,11.9l15.2,36.2h7.4l15.2-36.3c1.7-4.3,3.3-8.2,4.6-11.9-.2,3.9-.3,8.2-.3,12.8v35.4h8.9v-59.9h-12.3l-15.3,36.4Z"></path>    <rect class="cls-1" x="365.8" y="593.6" width="8.9" height="59.9"></rect>    <path class="cls-1" d="M426.6,629.4c0,4.7,0,8.9.3,12.8-1.7-3.5-3.6-7.2-5.8-11.3l-22.3-37.2h-11.3v59.9h8.9v-35.8c0-4.7,0-8.9-.2-12.8,1.7,3.5,3.6,7.2,5.7,11.3l22.3,37.2h11.4v-59.9h-9v35.8Z"></path>    <path class="cls-1" d="M500.6,595.8c-2.9-1.5-6.3-2.2-10.1-2.2h-23.5v59.9h8.9v-24.7h14.6c3.8,0,7.2-.7,10.1-2.2,2.9-1.5,5.2-3.5,6.7-6.2,1.6-2.7,2.4-5.8,2.4-9.2s-.8-6.6-2.4-9.2c-1.6-2.7-3.8-4.7-6.7-6.2ZM499.4,616.4c-.9,1.5-2.2,2.6-3.9,3.5-1.7.8-3.6,1.2-5.9,1.2h-13.8v-19.8h13.8c3.4,0,6.1.9,8.1,2.7,2,1.8,3,4.2,3,7.1s-.5,3.7-1.4,5.2Z"></path>    <path class="cls-1" d="M560,596.9c-4.5-2.6-9.7-3.9-15.4-3.9s-10.7,1.3-15.2,3.9c-4.5,2.6-8.1,6.3-10.7,10.9-2.6,4.7-3.9,9.9-3.9,15.7s1.3,11.2,3.9,15.8c2.6,4.7,6.2,8.3,10.7,11,4.5,2.6,9.6,3.9,15.2,3.9s10.8-1.3,15.4-3.9c4.5-2.6,8.1-6.3,10.7-11,2.6-4.7,3.9-9.9,3.9-15.8s-1.3-11.1-3.9-15.8c-2.6-4.7-6.1-8.3-10.7-11ZM562.9,635.4c-1.8,3.5-4.3,6.2-7.5,8.2-3.2,2-6.8,3-10.7,3s-7.6-1-10.7-3c-3.2-2-5.7-4.7-7.4-8.2-1.8-3.5-2.7-7.4-2.7-11.8s.9-8.3,2.7-11.8c1.8-3.5,4.3-6.2,7.4-8.2s6.8-3,10.7-3,7.6,1,10.7,3c3.2,2,5.7,4.7,7.5,8.2s2.7,7.4,2.7,11.8-.9,8.3-2.7,11.8Z"></path>    <path class="cls-1" d="M616.2,625.1c2.8-1.5,5-3.6,6.6-6.1,1.5-2.6,2.3-5.4,2.3-8.5s-.8-6.3-2.3-8.8c-1.5-2.6-3.7-4.6-6.5-6-2.8-1.4-6-2.1-9.6-2.1h-22.5v59.9h8.9v-26.2h11.7l15.6,26.2h10.4l-17-27.4c.8-.3,1.6-.7,2.4-1.1ZM613.2,617.1c-2,1.7-4.6,2.5-7.8,2.5h-12.2v-18.3h12.2c3.3,0,5.9.8,7.8,2.5,2,1.7,3,3.9,3,6.6s-1,5-3,6.6Z"></path>    <polygon class="cls-1" points="676.8 593.6 630.4 593.6 630.4 601.3 649.2 601.3 649.2 653.6 658.1 653.6 658.1 601.3 676.8 601.3 676.8 593.6"></polygon>    <path class="cls-1" d="M694.9,593.6l-23.5,59.9h9.2l5.8-14.7h27l5.7,14.7h9.6l-23.5-59.9h-10.3ZM689.4,631.1l10.5-26.6,10.5,26.6h-21Z"></path>    <polygon class="cls-1" points="744.3 593.6 735.4 593.6 735.4 653.6 773.9 653.6 773.9 645.9 744.3 645.9 744.3 593.6"></polygon>  </g></svg>